<?xml version="1.0" encoding="utf-8"?>
<!-- Generator: Adobe Illustrator 16.0.4, SVG Export Plug-In . SVG Version: 6.00 Build 0)  -->
<!DOCTYPE svg PUBLIC "-//W3C//DTD SVG 1.1//EN" "http://www.w3.org/Graphics/SVG/1.1/DTD/svg11.dtd">
<svg version="1.1" id="Layer_2" xmlns="http://www.w3.org/2000/svg" xmlns:xlink="http://www.w3.org/1999/xlink" x="0px" y="0px"
	 width="543.365px" height="157.566px" viewBox="0 0 543.365 157.566" enable-background="new 0 0 543.365 157.566"
	 xml:space="preserve">
<g>
	<path fill-rule="evenodd" clip-rule="evenodd" fill="#F74902" d="M490.91,155.253V45.868l24.951,0.158V57.26l-0.107,3.216
		c1.385-5.75,10.617-15.542,27.611-16.757v26.278c-12.445,0.777-26.086,4.453-26.525,23.332l-0.045,0.001v61.923H490.91z"/>
	<path fill-rule="evenodd" clip-rule="evenodd" fill="#F74902" d="M197.609,157.533c-31.277,0-56.727-25.448-56.727-56.728
		s25.449-56.727,56.727-56.727c31.279,0,56.727,25.447,56.727,56.727S228.889,157.533,197.609,157.533z M198.484,68.95
		c-17.566,0-31.855,14.289-31.855,31.854c0,17.566,14.289,31.857,31.855,31.857c17.564,0,31.854-14.291,31.854-31.857
		C230.338,83.239,216.049,68.95,198.484,68.95z"/>
	<path fill-rule="evenodd" clip-rule="evenodd" fill="#F74902" d="M318.564,157.566c-13.107-0.216-21.998-3.025-31.107-11.716
		l0.205-0.128l-0.627,9.615h-23.846V25.805L289.07,0l-0.078,55.504l0.049-0.153c6.75-6.5,17.666-11.25,30.084-11.239l0.275-0.001
		c28.633,0,52.822,25.979,52.822,56.728c0,14.826-5.896,29.054-16.602,40.063c-10.221,10.509-23.529,16.583-36.514,16.664
		L318.564,157.566z M315.496,68.983c-10.416,0-20.197,5.116-26.16,13.688l-0.262,0.375v35.585l0.262,0.375
		c5.963,8.572,15.744,13.688,26.16,13.688c17.564,0,31.854-14.291,31.854-31.857C347.35,83.272,333.061,68.983,315.496,68.983z"/>
	<path fill="#F74902" d="M416.324,156.731c-23.48,0-39.881-13.943-39.881-33.906c0-22.538,17.547-34.451,50.742-34.451h23.926
		v-4.106c0-9.492-8.633-19.311-23.084-19.311c-10.355,0.011-19.338,3.099-24.467,8.33l-14.012-14.013
		c1.621-1.709,3.414-3.301,5.344-4.746c9.109-6.81,20.934-10.41,34.193-10.41c28.68,0,47.211,15.76,47.211,40.149v71.105h-24.723
		l-0.02-10.472l-2.479,2.482C440.393,156.081,430.471,156.731,416.324,156.731z M427.846,107.033
		c-16.486,0-24.846,5.077-24.846,15.093c0,8.69,7.477,14.306,19.047,14.306c17.656,0,29.064-9.235,29.064-23.528v-5.87H427.846z"/>
	<rect x="1.621" y="45.988" fill-rule="evenodd" clip-rule="evenodd" fill="#F74902" width="25.377" height="109.379"/>
	<path fill-rule="evenodd" clip-rule="evenodd" fill="#F74902" d="M14.172,31.425C6.357,31.425,0,25.067,0,17.252
		S6.357,3.079,14.172,3.079c7.816,0,14.174,6.357,14.174,14.173S21.988,31.425,14.172,31.425z"/>
	<g>
		<path fill="#F74902" d="M51.521,124.555c10.371,7.771,20.969,11.225,35.93,11.225c16.998,0,24.688-5.06,24.688-12.546
			c0-7.893-7.488-11.333-28.129-13.154c-27.115-2.428-45.127-10.118-45.127-33.188c0-19.831,19.225-32.782,45.734-32.782
			c17.809,0,34.402,6.071,47.354,16.796c0.156,0.134,0.297,0.269,0.42,0.402l-14.986,15.357c-8.99-6.888-20.447-10.701-34-10.701
			c-13.762,0-21.248,4.048-21.248,10.119c0,6.476,6.07,9.713,24.486,11.534c28.33,2.833,48.768,11.939,48.768,35.211
			c0,22.058-20.641,34.806-48.363,34.806c-20.035,0-36.021-4.856-50.592-16.998c-0.143-0.118-0.268-0.245-0.377-0.379
			L51.521,124.555z"/>
	</g>
</g>
</svg>
