<?xml version="1.0" standalone="no"?>
<!DOCTYPE svg PUBLIC "-//W3C//DTD SVG 1.1//EN" "http://www.w3.org/Graphics/SVG/1.1/DTD/svg11.dtd" >
<svg xmlns="http://www.w3.org/2000/svg">
<metadata>
This is a custom SVG webfont generated by Font Squirrel.
Copyright   : 41 c198692 by Richard A Ware All Rights Reserved
</metadata>
<defs>
<font id="AlexandriaFLFRegular" horiz-adv-x="1107" >
<font-face units-per-em="2048" ascent="1638" descent="-410" />
<missing-glyph horiz-adv-x="720" />
<glyph unicode=" "  horiz-adv-x="720" />
<glyph unicode="&#x09;" horiz-adv-x="720" />
<glyph unicode="&#xa0;" horiz-adv-x="720" />
<glyph unicode="!" horiz-adv-x="360" d="M115 68q0 -33 20.5 -52.5t54.5 -19.5q29 0 50.5 19.5t21.5 52.5q0 31 -21.5 51t-52.5 20q-33 0 -53 -20t-20 -51zM145 373h84v1089h-84v-1089z" />
<glyph unicode="&#x22;" horiz-adv-x="552" d="M125 1489l20 -328h43l21 328h-84zM354 1489l23 -328h41l20 328h-84z" />
<glyph unicode="#" horiz-adv-x="1054" d="M78 723h213l-64 -258h52l63 258h281l-66 -268h51l66 268h223l16 51h-227l57 234h211l17 49h-215l63 258h-49l-63 -258h-283l63 258h-51l-61 -258h-234l-16 -49h237l-59 -234h-209zM352 774l60 234h282l-59 -234h-283z" />
<glyph unicode="$" horiz-adv-x="991" d="M80 0h72v143q53 -68 138 -112.5t202 -48.5v-107h83v115q164 23 263.5 133t99.5 285q0 174 -96.5 276t-266.5 150v555q78 -6 138.5 -43t109.5 -91v-106h74v295h-74v-76q-102 94 -248 102v107h-83v-109q-61 -6 -121 -31.5t-107 -70.5t-75.5 -105.5t-28.5 -136.5 q0 -84 28.5 -140t75.5 -94t106.5 -63.5t121.5 -44.5v-723q-63 2 -114.5 19.5t-93.5 46.5t-74 66.5t-58 78.5v136h-72v-406zM242 1124q0 51 20.5 97.5t54 82t79 57.5t96.5 28v-527q-53 18 -98.5 39t-79 51.5t-53 71.5t-19.5 100zM575 68v686q127 -35 203 -120t76 -226 t-77 -226t-202 -114z" />
<glyph unicode="%" horiz-adv-x="1718" d="M39 1057q0 -84 31.5 -157t86 -127t127 -86t156.5 -32q82 0 156 32t128 86t86 127t32 157q0 82 -32 155.5t-86 128t-128 86t-156 31.5q-84 0 -156.5 -31.5t-127 -86t-86 -128t-31.5 -155.5zM117 1057q0 68 25.5 126t69.5 102t102.5 69.5t125.5 25.5q68 0 126.5 -25.5 t102.5 -69.5t69.5 -102.5t25.5 -125.5q0 -68 -25.5 -126.5t-69.5 -102.5t-102.5 -69.5t-126.5 -25.5t-126 25.5t-102 69.5t-69.5 102.5t-25.5 126.5zM371 0h80l901 1462h-82zM887 365q0 -84 31.5 -157t86 -127t127 -86t156.5 -32q82 0 156 32t128 86t86 127t32 157 q0 82 -32 155.5t-86 127.5t-128 86t-156 32q-84 0 -156.5 -32t-127 -86t-86 -128t-31.5 -155zM965 365q0 68 25.5 126t69.5 102t102.5 69.5t125.5 25.5q68 0 126.5 -25.5t102.5 -69.5t69.5 -102.5t25.5 -125.5q0 -68 -25.5 -126.5t-69.5 -102.5t-102.5 -69.5t-126.5 -25.5 t-126 25.5t-102 69.5t-69.5 102.5t-25.5 126.5z" />
<glyph unicode="&#x26;" horiz-adv-x="1378" d="M53 406q0 -90 29 -166t82 -131.5t132 -87t177 -31.5q74 0 135.5 14t111.5 34.5t90 45.5t73 43l90 -127h110l-135 182q117 115 170 270.5t66 329.5h135v66h-350v-66h137q-8 -145 -57.5 -288.5t-141.5 -241.5l-456 682l-37 56q-17 24 -27 48.5t-16 50t-6 58.5q0 51 21.5 94 t59 74t89 47t112.5 16q104 0 180 -17.5t127 -49.5v-146h80v203q-66 35 -159 64.5t-228 29.5q-76 0 -142.5 -23.5t-116.5 -65.5t-78.5 -99t-28.5 -127q0 -78 26.5 -141.5t67.5 -118.5q-57 -41 -114.5 -88t-103.5 -105.5t-75 -129t-29 -158.5zM135 406q0 70 24.5 129t64.5 111 t90.5 96t101.5 83l420 -628q-72 -47 -159 -85t-204 -38q-80 0 -142.5 24.5t-105.5 68.5t-66.5 105.5t-23.5 133.5z" />
<glyph unicode="'" horiz-adv-x="335" d="M125 1462l20 -325h45l21 325h-86z" />
<glyph unicode="(" horiz-adv-x="417" d="M125 709q0 -215 30.5 -423t90.5 -413h84q-59 205 -89 414t-30 422q0 188 26.5 397t92.5 438h-84q-66 -225 -93.5 -436t-27.5 -399z" />
<glyph unicode=")" horiz-adv-x="417" d="M121 -127h84q121 412 121 836q0 188 -28 399t-93 436h-84q66 -229 92.5 -438t26.5 -397q0 -213 -30 -422t-89 -414z" />
<glyph unicode="*" horiz-adv-x="438" d="M59 1161q0 -12 8.5 -21.5t18.5 -9.5q14 0 33.5 11.5t38 27t34.5 31.5l27 27q-8 -23 -19.5 -60t-11.5 -65q0 -20 8.5 -33.5t28.5 -13.5q18 0 24.5 13t6.5 36q0 29 -8 64.5t-17 58.5l29 -27l34 -32q17 -15 35.5 -25t32.5 -10t21.5 8t7.5 18q0 16 -16.5 29.5t-41 24 t-50 17.5t-43.5 11q18 4 43.5 11.5t49 17.5t41 22.5t17.5 28.5q0 12 -7 21.5t-22 9.5q-16 0 -34.5 -11.5t-37 -27t-33.5 -31.5l-26 -27q10 25 18.5 61t8.5 64q0 23 -7 36.5t-26 13.5q-18 0 -25 -13.5t-7 -36.5q0 -31 8 -66.5t18 -58.5l-25 27q-16 16 -34.5 31.5t-38 27 t-33.5 11.5q-29 0 -29 -33q0 -16 17.5 -29.5t42 -23t50.5 -16.5t42 -9q-12 -4 -38 -10t-50.5 -16.5t-44 -23.5t-19.5 -30z" />
<glyph unicode="+" horiz-adv-x="679" d="M96 719h209v-209h84v209h209v84h-209v209h-84v-209h-209v-84z" />
<glyph unicode="," horiz-adv-x="333" d="M53 -193l27 -18l196 322l-71 30z" />
<glyph unicode="-" horiz-adv-x="632" d="M106 719h422v84h-422v-84z" />
<glyph unicode="." horiz-adv-x="333" d="M96 66q0 -31 21.5 -52.5t52.5 -21.5t52.5 21.5t21.5 52.5t-21.5 52t-52.5 21t-52.5 -21.5t-21.5 -51.5z" />
<glyph unicode="/" horiz-adv-x="647" d="M47 0h82l502 1462h-82z" />
<glyph unicode="0" d="M39 729q0 -141 31.5 -276.5t96 -239.5t162 -168.5t226.5 -64.5t226.5 64.5t162 169.5t97 239.5t32.5 275.5q0 143 -32.5 278.5t-97 240t-162 168t-226.5 63.5t-226.5 -63.5t-162 -168t-96 -240t-31.5 -278.5zM123 729q0 125 27.5 244t83 213t136.5 151.5t185 57.5 q106 0 187 -57.5t136.5 -151.5t83 -213t27.5 -244t-27.5 -244.5t-83 -213t-136 -151t-187.5 -57.5q-104 0 -185 57.5t-136.5 151t-83 213t-27.5 244.5z" />
<glyph unicode="1" d="M399 0h334v74h-125v1386h-209v-74h125v-1312h-125v-74z" />
<glyph unicode="2" d="M131 0h873v84h-752l16 72q20 86 61.5 154.5t96.5 127t120 110.5l130 105l120 99q60 51 106 106t74 118.5t28 139.5q0 70 -27 134.5t-81 113.5t-134 77.5t-184 28.5t-180 -30.5t-127.5 -79.5t-81.5 -110t-42 -122h95q12 49 36.5 96.5t64.5 84.5t97.5 58.5t137.5 21.5 t143 -20.5t107 -57.5t68 -87t24 -108q0 -66 -24 -118t-63.5 -98t-94.5 -89l-115 -90l-145 -113q-72 -59 -134.5 -124.5t-109 -141.5t-66.5 -170z" />
<glyph unicode="3" d="M104 309q8 -63 40 -122.5t87.5 -104.5t135 -71.5t188.5 -26.5q80 0 159 23.5t141.5 73.5t101 128t38.5 184q0 86 -22.5 152.5t-59 116t-83 80t-91.5 44.5q35 6 78 31t81 66t63.5 98t25.5 131q0 80 -30.5 147.5t-87 116.5t-136.5 77t-178 28q-113 0 -191.5 -31t-130 -79 t-78 -105.5t-34.5 -112.5h86q6 43 26.5 86t60.5 79t104.5 58.5t156.5 22.5q154 0 251 -75t97 -212q0 -74 -28.5 -127t-72.5 -88t-99.5 -51.5t-108.5 -16.5h-127v-84h127q57 0 114.5 -23.5t102.5 -68.5t72.5 -110.5t27.5 -149.5q0 -92 -33.5 -153.5t-86 -100.5t-117 -55 t-123.5 -16q-160 0 -251 68.5t-110 172.5h-86z" />
<glyph unicode="4" d="M84 356h719v-272h-84v-84h252v84h-82v272h129v82h-129v1045h-64l-741 -1069v-58zM201 438l602 862v-862h-602z" />
<glyph unicode="5" d="M59 289q25 -57 68 -112.5t102.5 -99.5t135 -70.5t167.5 -26.5q115 0 210.5 41.5t164 113.5t106.5 165t38 198q0 117 -41 213t-112 164.5t-164 105.5t-199 37q-92 0 -151.5 -19.5t-94.5 -37.5l90 411h461v-106h84v196h-609l-122 -579l75 -23q59 39 121 56.5t143 17.5 q86 0 165 -32t139.5 -89t95.5 -138t35 -177q0 -88 -32 -167t-90.5 -138.5t-138 -94.5t-174.5 -35q-78 0 -140 21.5t-112.5 58.5t-86 84t-58.5 97z" />
<glyph unicode="6" d="M66 586q0 -147 36.5 -262t103 -194t161 -120t208.5 -41q113 0 204 40t154.5 108.5t97.5 162t34 201.5q0 98 -30.5 186.5t-92 156t-153 107.5t-214.5 40q-80 0 -146.5 -18.5t-118.5 -49.5t-89 -69.5t-59 -77.5q12 123 46 236.5t98.5 200.5t163.5 138t241 51q74 0 118.5 -7 t81.5 -17l29 84q-33 10 -86 17t-131 7q-162 0 -285 -60t-205.5 -174t-124.5 -276.5t-42 -369.5zM152 539q0 35 3 52t5 32q20 45 55 93t85 86t118.5 62.5t156.5 24.5q104 0 181.5 -36t127.5 -94.5t74.5 -131t24.5 -146.5q0 -88 -27.5 -168t-80 -140t-128 -96t-172.5 -36 q-96 0 -174.5 43t-134 112.5t-85 159t-29.5 183.5z" />
<glyph unicode="7" d="M78 1239h84v141h786q-109 -109 -208 -233.5t-173.5 -280t-120 -348t-45.5 -434.5h-116v-84h313v84h-113q0 225 41 406.5t116 336t181.5 291.5t239.5 273v71h-985v-223z" />
<glyph unicode="8" d="M96 401q0 -78 31 -153.5t89 -134t143 -94t194 -35.5q111 0 196 35.5t143 94t88 134.5t30 153q0 88 -33 156t-81 116t-101.5 75.5t-94.5 37.5q37 8 87.5 31t94.5 63t74.5 98t30.5 140q0 76 -30.5 142.5t-87 115.5t-137.5 77t-179 28t-179 -28t-137.5 -77t-87 -115.5 t-30.5 -144.5t28.5 -136t70.5 -98t90 -63.5t87 -32.5q-41 -12 -93 -40.5t-98 -76.5t-77 -115t-31 -153zM193 397q0 61 22.5 121t67.5 106t112.5 74.5t157.5 28.5t158.5 -28.5t113.5 -74.5t67.5 -106t22.5 -121t-22.5 -120.5t-67.5 -105.5t-113.5 -74.5t-158.5 -28.5 t-157.5 28.5t-112.5 74.5t-67.5 105.5t-22.5 120.5zM205 1118q0 51 21.5 102.5t65.5 90.5t109.5 63.5t151.5 24.5q88 0 153.5 -24.5t109.5 -63.5t65.5 -90.5t21.5 -102.5q0 -53 -21.5 -103t-65.5 -89t-109.5 -63.5t-153.5 -24.5q-86 0 -151.5 24.5t-109.5 63.5t-65.5 89 t-21.5 103z" />
<glyph unicode="9" d="M74 973q0 -98 30.5 -186.5t92 -156t152.5 -107.5t214 -40q80 0 146.5 18.5t119 49.5t89 68.5t59.5 78.5q-12 -123 -46 -236.5t-98.5 -200.5t-164 -138t-240.5 -51q-74 0 -119 7t-82 17l-28 -84q33 -10 86 -17t131 -7q162 0 284.5 60.5t205.5 174t125 276.5t42 369 q0 147 -37 262t-103.5 194t-160.5 120t-209 41q-113 0 -204 -40t-154.5 -108.5t-97 -163t-33.5 -200.5zM156 973q0 88 27.5 168t79.5 140t128 96t172 36t175 -43t134.5 -112.5t85 -159t29.5 -183.5q0 -35 -3 -52t-5 -32q-20 -47 -55 -94t-85.5 -85t-119 -62.5t-156.5 -24.5 q-104 0 -181 36t-127 94.5t-74.5 131t-24.5 146.5z" />
<glyph unicode=":" horiz-adv-x="333" d="M96 66q0 -31 21.5 -52.5t52.5 -21.5t52.5 21.5t21.5 52.5t-21.5 52t-52.5 21t-52.5 -21.5t-21.5 -51.5zM96 897q0 -31 21.5 -52.5t52.5 -21.5t52.5 21.5t21.5 52.5t-21.5 52.5t-52.5 21.5t-52.5 -21.5t-21.5 -52.5z" />
<glyph unicode=";" horiz-adv-x="417" d="M84 -193l27 -18l196 322l-71 30zM139 897q0 -31 21.5 -52.5t52.5 -21.5t52.5 21.5t21.5 52.5t-21.5 52.5t-52.5 21.5t-52.5 -21.5t-21.5 -52.5z" />
<glyph unicode="&#x3c;" horiz-adv-x="577" d="M61 760l404 -318l47 52l-340 266l346 272l-47 51z" />
<glyph unicode="=" horiz-adv-x="606" d="M76 594h463v84h-463v-84zM76 844h463v84h-463v-84z" />
<glyph unicode="&#x3e;" horiz-adv-x="577" d="M68 1032l346 -272l-340 -266l47 -52l403 318l-409 323z" />
<glyph unicode="?" horiz-adv-x="894" d="M61 1212l78 -36q14 39 38 78.5t60.5 72.5t89 53.5t119.5 20.5q152 0 238 -88t86 -236q0 -96 -27.5 -163.5t-79 -109.5t-125 -61.5t-163.5 -21.5v-348h84v276q76 6 146.5 32t125.5 76t88 129t33 191q0 92 -28.5 167t-81 128t-128 82t-168.5 29q-88 0 -152.5 -25.5 t-110.5 -64.5t-74.5 -87.5t-47.5 -93.5zM342 66q0 -31 21.5 -52.5t52.5 -21.5t52 21.5t21 52.5t-21.5 52t-51.5 21q-31 0 -52.5 -21.5t-21.5 -51.5z" />
<glyph unicode="@" horiz-adv-x="1220" d="M76 817q0 -98 32.5 -192.5t99 -168t167 -118.5t235.5 -45q61 0 118.5 11t107 28.5t85 39t52.5 44.5l-29 30q-18 -23 -53 -42t-79 -35.5t-95 -25.5t-103 -9q-125 0 -218 42t-155.5 109.5t-93 154.5t-30.5 177t34.5 176t99 153.5t156 108.5t205.5 41q115 0 206 -38.5 t155.5 -103t99.5 -145.5t35 -167q0 -41 -10.5 -88t-30.5 -88t-54 -68t-79 -27q-33 0 -51.5 13.5t-28.5 35t-13 48t-3 53.5l26 326h-39l-10 -132q-8 25 -22.5 49.5t-40 46t-62.5 35t-90 13.5q-66 0 -118 -22.5t-87 -60.5t-53 -87t-18 -101q0 -117 56 -188.5t179 -71.5 q63 0 105.5 17.5t70 41t43 50.5t23.5 45q0 -59 26.5 -106.5t98.5 -47.5q66 0 108.5 31t68 78t36 102.5t10.5 102.5q0 92 -37 180t-106.5 158.5t-169 113.5t-224.5 43t-224 -45t-168.5 -118.5t-106.5 -167t-37 -189.5zM367 788q0 43 15 85t45 74t74 51.5t99 19.5 q45 0 81 -17.5t60.5 -45t37 -64.5t12.5 -76q0 -43 -13.5 -87t-42 -79t-73 -56.5t-103.5 -21.5q-102 0 -147 64.5t-45 152.5z" />
<glyph unicode="A" horiz-adv-x="1492" d="M68 0h374v86h-137l127 363h658l129 -363h-140v-86h355v86h-115l-463 1290h115v86h-426v-86h114l-462 -1290h-129v-86zM463 535l295 835l303 -835h-598z" />
<glyph unicode="B" horiz-adv-x="1155" d="M41 0h614q215 0 339 108.5t124 309.5q0 78 -24.5 143.5t-66.5 114.5t-96 82t-112 49q92 35 144.5 111.5t52.5 193.5q0 70 -23.5 133.5t-71 111.5t-118 76.5t-164.5 28.5h-598v-86h158v-1290h-158v-86zM297 86v672h360q74 0 139.5 -23.5t115 -67.5t79 -107.5t29.5 -141.5 q0 -84 -29.5 -146.5t-79 -103.5t-115 -61.5t-139.5 -20.5h-360zM297 844v532h348q129 0 201 -74.5t72 -189.5q0 -57 -19.5 -106.5t-54.5 -85t-83 -56t-104 -20.5h-360z" />
<glyph unicode="C" horiz-adv-x="1439" d="M78 729q0 -158 57.5 -295t158.5 -238.5t238.5 -158.5t294.5 -57q111 0 197 22.5t149.5 56t107.5 71.5t73 71v125q-41 -47 -93.5 -92.5t-117 -80t-143 -55t-173.5 -20.5q-139 0 -258.5 49t-207 136t-136.5 207t-49 259t49 259t136.5 207t207 136t258.5 49q152 0 258.5 -50 t186.5 -118v-129h98v363h-98v-113q-31 25 -75 51.5t-100.5 47t-124 34t-145.5 13.5q-158 0 -295 -57.5t-238 -159t-158.5 -238.5t-57.5 -295z" />
<glyph unicode="D" horiz-adv-x="1378" d="M57 0h613q133 0 256 50t218 145.5t152.5 231.5t57.5 306q0 168 -56.5 303t-149.5 229.5t-216 145.5t-258 51h-617v-86h156v-1290h-156v-86zM311 86v1290h353q119 0 226 -47t189 -133t129 -204t47 -259t-48 -260t-130 -205t-189.5 -134t-223.5 -48h-353z" />
<glyph unicode="E" horiz-adv-x="993" d="M55 0h858v246h-86v-160h-518v684h387v-104h86v295h-86v-105h-387v520h518v-153h86v239h-858v-86h156v-1290h-156v-86z" />
<glyph unicode="F" horiz-adv-x="993" d="M68 0h411v86h-157v694h380v-104h86v295h-86v-105h-380v510h518v-153h86v239h-858v-86h155v-1290h-155v-86z" />
<glyph unicode="G" horiz-adv-x="1640" d="M72 729q0 -156 56 -293t154.5 -238.5t233.5 -159.5t293 -58q129 0 224 30.5t161 75.5t104.5 98.5t57.5 96.5v-281h98v623h156v86h-776v-86h528q-12 -119 -46 -219.5t-99.5 -172t-166 -112.5t-241.5 -41q-137 0 -254 50t-203 138t-134 207t-48 256t48 256t134 207t203 138 t254 50q160 0 276.5 -56t202.5 -134v-133h98v381h-98v-121q-31 29 -78 57.5t-108.5 52t-135 38t-157.5 14.5q-154 0 -288 -59.5t-234.5 -162t-157.5 -238.5t-57 -290z" />
<glyph unicode="H" horiz-adv-x="1404" d="M68 0h411v86h-157v688h774v-688h-158v-86h412v86h-156v1290h156v86h-412v-86h158v-516h-774v516h157v86h-411v-86h155v-1290h-155v-86z" />
<glyph unicode="I" horiz-adv-x="618" d="M115 0h397v86h-150v1290h150v86h-397v-86h149v-1290h-149v-86z" />
<glyph unicode="J" horiz-adv-x="690" d="M92 -59q31 -35 77 -58.5t118 -23.5q119 0 180 74.5t61 252.5v1190h119v86h-354v-86h137v-1190q0 -135 -35 -182t-108 -47q-47 0 -78 16.5t-49 38.5z" />
<glyph unicode="K" horiz-adv-x="1097" d="M70 0h307v86h-105v625l31 30l541 -655h-109v-86h340v86h-106l-594 723l567 567h107v86h-334v-86h102l-545 -545v545h105v86h-307v-86h104v-1290h-104v-86z" />
<glyph unicode="L" horiz-adv-x="897" d="M68 0h770v211h-99v-125h-448v1290h119v86h-334v-86h117v-1290h-125v-86z" />
<glyph unicode="M" horiz-adv-x="1828" d="M61 0h369v86h-135v1196l627 -1311l626 1311v-1196h-135v-86h369v86h-135v1290h135v88h-248l-612 -1278l-613 1276h-248v-86h136v-1290h-136v-86z" />
<glyph unicode="N" horiz-adv-x="1536" d="M51 0h348v86h-125v1163l1059 -1253h49v1380h127v86h-352v-86h127v-1163l-1051 1249h-182v-86h125v-1290h-125v-86z" />
<glyph unicode="O" horiz-adv-x="1646" d="M78 729q0 -156 59.5 -292t160.5 -237.5t237 -160.5t292 -59t292 59t238.5 160.5t162 237.5t59.5 292t-59.5 292t-162 237.5t-238.5 161t-292 59.5t-292 -59.5t-237 -161t-160.5 -237.5t-59.5 -292zM176 729q0 135 51.5 253t140.5 207t207.5 140t251.5 51q135 0 254 -51 t208 -140t140.5 -207t51.5 -253q0 -133 -51.5 -252t-140.5 -208t-208 -140t-254 -51q-133 0 -251.5 51t-207.5 140t-140.5 208t-51.5 252z" />
<glyph unicode="P" horiz-adv-x="993" d="M39 0h369v86h-136v584h273q184 0 290.5 105.5t106.5 289.5q0 88 -26.5 160.5t-78 125t-125 82t-167.5 29.5h-506v-86h135v-1290h-135v-86zM272 756v620h273q133 0 216 -82t83 -229q0 -158 -83 -233.5t-216 -75.5h-273z" />
<glyph unicode="Q" horiz-adv-x="1660" d="M76 729q0 -150 57 -286t157.5 -238.5t239 -163.5t297.5 -61q-72 0 -155.5 -11.5t-171.5 -64.5v-86q86 47 161.5 62.5t153.5 15.5q66 0 114 -15.5t93 -38.5q47 -23 100.5 -40t134.5 -17q70 0 118 12.5t100 30.5v90q-53 -23 -100.5 -33t-117.5 -10q-74 0 -119.5 13.5 t-82.5 31.5l-82 36q-43 19 -90 28q133 8 259 67.5t223 158.5t156.5 231t59.5 288t-59.5 292t-162 237.5t-239.5 161t-293 59.5t-292 -59.5t-238 -161t-161.5 -237.5t-59.5 -292zM176 729q0 135 51.5 253t140.5 207t207.5 140t251.5 51q135 0 254 -51t208 -140t140.5 -207 t51.5 -253q0 -133 -51.5 -252t-140.5 -208t-208 -140t-254 -51q-133 0 -251.5 51t-207.5 140t-140.5 208t-51.5 252z" />
<glyph unicode="R" horiz-adv-x="1124" d="M45 0h387v86h-145v571h37l528 -657h213v86h-158l-461 571h115q90 0 165 32t127 86t81 127t29 157q0 86 -29 159.5t-81 128t-127 85t-165 30.5h-516v-86h145v-1290h-145v-86zM289 743v633h280q61 0 115.5 -23.5t94.5 -65.5t62.5 -100t22.5 -128q0 -66 -21.5 -123 t-61.5 -100t-94 -68t-118 -25h-280z" />
<glyph unicode="S" horiz-adv-x="983" d="M80 0h86v143q45 -59 130 -109t208 -50q100 0 181 32.5t137.5 89t86 134t29.5 170.5q0 96 -33 166.5t-89 122t-131 87t-157 64.5q-61 20 -111 44t-85 54.5t-54.5 73.5t-19.5 102q0 117 80 182.5t197 65.5q106 0 173.5 -43t102.5 -96v-100h86v311h-86v-76 q-18 18 -40.5 35.5t-55.5 33t-77 24.5t-103 9q-74 0 -142.5 -25.5t-120 -71.5t-82 -109.5t-30.5 -139.5q0 -86 24.5 -143t69.5 -98t104.5 -70t130.5 -55q74 -27 137.5 -54.5t110.5 -66.5t75 -93.5t28 -133.5q0 -76 -26 -136.5t-72 -103.5t-107.5 -65.5t-130.5 -22.5 q-68 0 -120 19.5t-94 51t-73 70.5t-51 78v119h-86v-420z" />
<glyph unicode="T" horiz-adv-x="1064" d="M76 1223h86v153h323v-1290h-157v-86h411v86h-155v1290h319v-153h86v239h-913v-239z" />
<glyph unicode="U" horiz-adv-x="1185" d="M43 1378h127v-1005q0 -98 37 -171t96 -121t136 -71.5t155 -23.5t153.5 23.5t136 71.5t97.5 120.5t37 171.5v1005h125v84h-348v-84h125v-1013q0 -76 -30 -129.5t-76 -87t-104.5 -49t-115.5 -15.5t-115.5 15.5t-104.5 49t-76 87t-30 129.5v1013h127v84h-352v-84z" />
<glyph unicode="V" horiz-adv-x="1173" d="M37 1376h108l445 -1429l444 1429h107v86h-328v-86h123l-346 -1136l-346 1136h121v86h-328v-86z" />
<glyph unicode="W" horiz-adv-x="2007" d="M49 1376h141l443 -1429l368 1241l369 -1241l438 1429h154v86h-395v-86h143l-340 -1136l-369 1243l-368 -1245l-344 1138h143v86h-383v-86z" />
<glyph unicode="X" horiz-adv-x="1204" d="M59 0h328v86h-108l323 569l326 -569h-109v-86h328v86h-121l-377 651l355 639h112v86h-307v-86h96l-305 -555l-299 555h96v86h-307v-86h113l348 -637l-371 -653h-121v-86z" />
<glyph unicode="Y" horiz-adv-x="1165" d="M61 1376h113l361 -635v-655h-115v-86h328v86h-115v655l360 635h117v86h-309v-86h94l-311 -555l-312 555h97v86h-308v-86z" />
<glyph unicode="Z" horiz-adv-x="1118" d="M49 0h993v285h-86v-199h-739l825 1376h-942v-264h86v178h699z" />
<glyph unicode="[" horiz-adv-x="438" d="M121 -98h227v71l-143 2v1500h137v73h-221v-1646z" />
<glyph unicode="\" horiz-adv-x="575" d="M47 1462l420 -1462h80l-418 1462h-82z" />
<glyph unicode="]" horiz-adv-x="438" d="M125 -27v-71h227v1646h-221v-73h139v-1500z" />
<glyph unicode="^" horiz-adv-x="720" d="M104 920l60 -23l203 504l204 -510l56 29l-230 585h-63z" />
<glyph unicode="_" horiz-adv-x="731" d="M2 -74v-71h752v71h-752z" />
<glyph unicode="`" horiz-adv-x="542" d="M119 1491l258 -256l57 59l-254 256z" />
<glyph unicode="a" horiz-adv-x="1159" d="M90 367q0 -74 26.5 -143.5t79 -124t130 -87t180.5 -32.5q84 0 146.5 16t107.5 40.5t74.5 53.5t50.5 53v-143h233v74h-151v641q0 86 -32 153.5t-86 114.5t-129 71.5t-161 24.5q-98 0 -192.5 -32.5t-155.5 -94.5l49 -67q47 47 127 78.5t172 31.5q59 0 117.5 -18.5 t104.5 -55t75 -93t29 -132.5v-116q-23 33 -57.5 63.5t-81 55t-104.5 39t-132 14.5q-98 0 -177 -32t-132.5 -85t-82 -123t-28.5 -145zM174 367q0 55 20.5 109t62.5 97t105.5 70t147.5 27q90 0 157.5 -26t111.5 -69t66.5 -97t22.5 -111t-22.5 -111.5t-66.5 -97.5t-111.5 -69 t-157.5 -26q-84 0 -146.5 26t-104.5 69t-63.5 97.5t-21.5 111.5z" />
<glyph unicode="b" horiz-adv-x="1216" d="M74 0h209v205q20 -39 53 -80t80 -74t110.5 -53.5t147.5 -20.5q119 0 208 47.5t146 125t86 177t29 205.5q0 104 -29 204t-86 177.5t-146 124.5t-208 47q-82 0 -145.5 -21.5t-111.5 -55t-81 -76.5t-53 -86v690h-209v-74h125v-1388h-125v-74zM283 532q0 88 24.5 173.5 t72.5 151t121.5 105t172.5 39.5q96 0 167.5 -39.5t120 -105t73 -151t24.5 -173.5t-23.5 -173t-72 -150.5t-121 -106.5t-168.5 -41q-98 0 -171 41t-122 106.5t-73.5 150.5t-24.5 173z" />
<glyph unicode="c" horiz-adv-x="985" d="M59 524q0 -111 34 -211t101.5 -177t168 -122t233.5 -45q68 0 116 9.5t82.5 22.5t59.5 30.5t45 34.5v108q-25 -23 -51.5 -44t-62 -38.5t-82 -28t-107.5 -10.5q-113 0 -198 39t-142 103.5t-86 150.5t-29 178q0 94 29 179t86 151t142 104.5t198 38.5q63 0 119.5 -10 t109.5 -39v-96h74v246h-74v-54q-59 23 -118.5 30t-110.5 7q-129 0 -229.5 -46t-169 -122.5t-103.5 -177t-35 -211.5z" />
<glyph unicode="d" horiz-adv-x="1232" d="M88 532q0 -106 28.5 -205.5t86 -177t145.5 -125t209 -47.5q82 0 146.5 20.5t111.5 53.5t80 74t53 80v-205h209v74h-125v1462h-233v-74h149v-616q-20 43 -53 86t-81 76.5t-111.5 55t-145.5 21.5q-121 0 -209 -47t-145.5 -124.5t-86 -177t-28.5 -204.5zM172 532 q0 88 24.5 173.5t72.5 152t120 106.5t168 40q98 0 172 -40t122 -106.5t72.5 -152t24.5 -173.5t-24.5 -173t-73.5 -150.5t-122 -106.5t-171 -41q-96 0 -169 41t-121 106.5t-71.5 150.5t-23.5 173z" />
<glyph unicode="e" horiz-adv-x="1153" d="M80 528q0 -106 30.5 -206.5t92 -178t154 -125t216.5 -47.5q98 0 171 21.5t126.5 56.5t90 79t65.5 89l-72 47q-25 -39 -55.5 -76.5t-74.5 -66.5t-105.5 -47.5t-145.5 -18.5q-92 0 -165.5 36t-126 97.5t-80 146.5t-27.5 183h893q2 14 2 29v35q0 92 -34 181t-98.5 160.5 t-155.5 115.5t-208 44q-109 0 -199.5 -43t-156 -117.5t-101.5 -176t-36 -218.5zM182 592q2 80 30 152.5t78 130t121.5 91t161.5 33.5t163 -32.5t125 -88t82 -130t34 -156.5h-795z" />
<glyph unicode="f" horiz-adv-x="542" d="M53 0h334v74h-125v909h201v72h-201v252q0 66 27.5 95.5t75.5 29.5q43 0 71.5 -10.5t50.5 -20.5v82q-23 10 -52 21.5t-81 11.5q-84 0 -130 -51.5t-46 -137.5v-272h-115v-72h115v-909h-125v-74z" />
<glyph unicode="g" horiz-adv-x="1216" d="M88 532q0 -109 31 -209t90 -176.5t146 -123t202 -46.5q82 0 146.5 20.5t111.5 53.5t80 74t53 80v-185q0 -154 -89 -243.5t-236 -89.5q-92 0 -149.5 21.5t-100.5 43.5l-39 -76q53 -29 119.5 -51t169.5 -22q82 0 156.5 27.5t131 80.5t89 131t32.5 176v965h125v72h-209v-209 q-20 43 -53 86t-81 76.5t-111.5 55t-145.5 21.5q-115 0 -202 -46t-146 -122.5t-90 -177t-31 -207.5zM172 532q0 90 24.5 175.5t72.5 151t120 105.5t168 40q98 0 172 -40t122 -106.5t72.5 -152t24.5 -173.5t-24.5 -173t-73.5 -150.5t-122 -106.5t-171 -41q-96 0 -168 40 t-120 105.5t-72.5 150.5t-24.5 175z" />
<glyph unicode="h" horiz-adv-x="1118" d="M74 0h334v74h-125v694q0 23 16 62.5t52 77.5t90.5 65.5t127.5 27.5q127 0 206 -66.5t79 -225.5v-635h-125v-74h334v74h-127v667q0 86 -29.5 150.5t-80 107.5t-117 64.5t-140.5 21.5q-61 0 -108 -12t-81 -32.5t-57.5 -44t-39.5 -46.5v586h-209v-74h125v-1388h-125v-74z " />
<glyph unicode="i" horiz-adv-x="522" d="M96 0h334v74h-125v981h-209v-72h125v-909h-125v-74zM199 1350q0 -29 18.5 -47.5t46.5 -18.5q29 0 47.5 18.5t18.5 47.5t-18.5 47t-47.5 18t-47 -18.5t-18 -46.5z" />
<glyph unicode="j" horiz-adv-x="450" d="M45 -221l43 -74q43 20 83 45t70.5 58.5t49 81t18.5 112.5v1053h-211v-72h127v-981q0 -88 -49 -137t-131 -86zM203 1350q0 -29 18.5 -47.5t46.5 -18.5q29 0 47.5 18.5t18.5 47.5t-18.5 47t-47.5 18t-47 -18.5t-18 -46.5z" />
<glyph unicode="k" horiz-adv-x="1079" d="M94 0h334v74h-125v426l33 30l457 -456h-138v-74h357v74h-111l-502 508l402 401h143v72h-420v-72h166l-387 -387v940h-209v-74h125v-1388h-125v-74z" />
<glyph unicode="l" horiz-adv-x="464" d="M68 0h333v74h-125v1462h-208v-74h125v-1388h-125v-74z" />
<glyph unicode="m" horiz-adv-x="1484" d="M61 0h334v74h-125v725q0 45 19.5 82t51.5 62.5t73 38.5t86 13q41 0 78.5 -13t66.5 -37.5t46.5 -60.5t17.5 -81v-729h-125v-74h334v74h-125v727q0 45 19 81t51 61.5t74 38.5t87 13q90 0 148.5 -51t58.5 -141v-729h-125v-74h334v74h-125v729q0 57 -20.5 107.5t-58.5 88 t-91 59t-121 21.5q-63 0 -109.5 -14t-78 -36.5t-52 -48.5t-32.5 -46q-10 20 -26.5 46t-46.5 47.5t-73 36.5t-106 15q-96 0 -148.5 -33.5t-81.5 -74.5v84h-209v-72h125v-909h-125v-74z" />
<glyph unicode="n" horiz-adv-x="1148" d="M94 0h334v74h-125v702q0 23 18.5 60.5t54.5 74.5t89 63.5t125 26.5q59 0 111.5 -15t91 -51t61.5 -91.5t23 -134.5v-635h-127v-74h337v74h-129v667q0 86 -29.5 150.5t-79.5 107.5t-117.5 64.5t-141.5 21.5q-61 0 -107.5 -13t-81 -33.5t-59.5 -45t-39 -45.5v107h-209v-72 h125v-909h-125v-74z" />
<glyph unicode="o" horiz-adv-x="1146" d="M74 530q0 -104 32.5 -204.5t96 -177t158 -124t214.5 -47.5q121 0 214.5 47.5t158 124t97 177t32.5 204.5t-32.5 205t-97 178.5t-158 124.5t-214.5 47t-215 -47t-157.5 -124.5t-96 -178t-32.5 -205.5zM158 530q0 88 25.5 172t77.5 151t131 107.5t183 40.5t182.5 -40.5 t130.5 -107.5t78.5 -151t26.5 -172t-26.5 -172t-78.5 -150.5t-130 -106.5t-183 -40q-104 0 -183 40t-131 106.5t-77.5 150.5t-25.5 172z" />
<glyph unicode="p" horiz-adv-x="1189" d="M57 -295v-74h334v74h-125v500q20 -39 53 -80t80 -74t110.5 -53.5t145.5 -20.5q121 0 209 47.5t146.5 125t87 177t28.5 205.5q0 104 -28.5 204t-87 177.5t-146.5 124.5t-209 47q-80 0 -143 -20.5t-111.5 -54t-81 -75.5t-53.5 -85v205h-209v-72h125v-1278h-125zM266 532 q0 88 22.5 173.5t70 151t119 105t169.5 39.5q96 0 170 -39.5t124 -105t75.5 -151t25.5 -173.5t-23.5 -173t-71.5 -150.5t-120.5 -106.5t-171.5 -41q-96 0 -168.5 41t-122 106.5t-74 150.5t-24.5 173z" />
<glyph unicode="q" horiz-adv-x="1232" d="M100 532q0 -106 29 -205.5t87 -177t146 -125t209 -47.5q82 0 145.5 20.5t110.5 53.5t80 74t54 80v-574h227v84h-144v1268h125v72h-208v-209q-20 43 -55.5 86t-84.5 76.5t-114.5 55t-145.5 21.5q-121 0 -208 -47t-143 -124.5t-83 -177t-27 -204.5zM184 532 q0 88 24.5 173.5t73 151t121 105t168.5 39.5q98 0 171 -39.5t121 -105t73 -151t25 -173.5t-25 -173t-74 -150.5t-121.5 -106.5t-169.5 -41q-98 0 -170.5 41t-121 106.5t-72 150.5t-23.5 173z" />
<glyph unicode="r" horiz-adv-x="684" d="M72 0h334v74h-125v712q0 41 14 77t39.5 62.5t60.5 42t74 15.5q80 0 133 -51l47 67q-31 29 -71.5 47.5t-108.5 18.5q-80 0 -122 -34t-66 -75v99h-209v-72h125v-909h-125v-74z" />
<glyph unicode="s" horiz-adv-x="790" d="M63 0h72v74q51 -41 117.5 -63.5t150.5 -22.5q72 0 134.5 20.5t109.5 58t75 94t28 130.5q0 72 -27 123t-73 86t-110.5 59.5t-140.5 44.5q-117 31 -171 76t-54 135q0 92 65.5 143.5t163.5 51.5q88 0 148.5 -32t105.5 -73v-78h74v244h-74v-70q-37 33 -98 58.5t-156 25.5 q-68 0 -126 -20.5t-99 -56t-64.5 -86t-23.5 -107.5q0 -66 22.5 -115t62.5 -83.5t97.5 -59.5t126.5 -41q61 -16 110.5 -33.5t84.5 -43t54.5 -61.5t19.5 -87q0 -106 -74 -162.5t-191 -56.5q-86 0 -152.5 29.5t-115.5 72.5v105h-72v-279z" />
<glyph unicode="t" horiz-adv-x="555" d="M61 983h115v-821q0 -86 43 -138.5t131 -52.5q47 0 79 10.5t56 22.5v84q-25 -14 -55.5 -24.5t-67.5 -10.5q-102 0 -102 119v811h199v72h-199v319h-84v-319h-115v-72z" />
<glyph unicode="u" horiz-adv-x="1148" d="M86 983h125v-655q0 -172 95 -262.5t276 -90.5q57 0 102 12.5t79 31t59.5 43t43.5 49.5v-111h209v74h-125v981h-209v-72h125v-711q0 -14 -17.5 -49t-53 -71.5t-89 -64.5t-124.5 -28q-131 0 -209 63.5t-78 223.5v709h-209v-72z" />
<glyph unicode="v" horiz-adv-x="956" d="M57 983h82l332 -983h39l311 983h84v72h-262v-72h94l-239 -776h-11l-264 776h94v72h-260v-72z" />
<glyph unicode="w" horiz-adv-x="1499" d="M57 983h82l332 -983h25l258 844l268 -844h27l311 983h84v72h-260v-72h92l-240 -776l-270 848h-23l-256 -848l-264 776h94v72h-260v-72z" />
<glyph unicode="x" horiz-adv-x="927" d="M53 983h103l266 -471l-258 -438h-109v-74h301v74h-108l217 377l229 -377h-116v-74h303v74h-95l-280 446l282 463h97v72h-293v-72h110l-233 -395l-229 395h104v72h-291v-72z" />
<glyph unicode="y" horiz-adv-x="1157" d="M70 983h129l350 -864l-180 -461h-136v-74h353v74h-131l526 1325h109v72h-316v-72h119l-295 -752l-305 752h131v72h-354v-72z" />
<glyph unicode="z" horiz-adv-x="888" d="M45 0h774v246h-84v-172h-536l620 981h-737v-254h84v182h512z" />
<glyph unicode="{" horiz-adv-x="376" d="M16 727q31 -35 62 -77t31 -107v-412q0 -127 57 -183.5t199 -51.5v63q-53 0 -87 7t-55.5 27.5t-30 54.5t-8.5 87v408q0 53 -25.5 102t-58.5 82q35 33 59.5 74.5t24.5 109.5v375q0 55 8.5 90t28 55.5t54 27.5t87.5 7v70q-70 0 -117.5 -11.5t-78.5 -40t-44 -76.5t-13 -122 v-375q0 -63 -31 -106t-62 -78z" />
<glyph unicode="|" horiz-adv-x="272" d="M111 -94h71v1640h-71v-1640z" />
<glyph unicode="}" horiz-adv-x="376" d="M29 -41v-63q141 -4 198.5 52t57.5 183v412q0 66 30.5 107.5t61.5 76.5q-31 35 -61.5 78t-30.5 106v375q0 74 -13.5 122t-44 76.5t-79 40t-117.5 11.5v-70q53 0 88 -7t54.5 -27.5t27.5 -55.5t8 -90v-375q0 -68 24.5 -109.5t59.5 -74.5q-33 -33 -58.5 -82t-25.5 -102v-408 q0 -53 -8 -87t-29.5 -54.5t-56.5 -27.5t-86 -7z" />
<glyph unicode="~" horiz-adv-x="991" d="M119 764l55 -51q25 23 55.5 46t98.5 23q47 0 85 -15t79 -34q45 -23 83.5 -36t94.5 -13q84 0 137 28.5t88 63.5l-53 53q-31 -27 -76 -46t-98 -19q-47 0 -86 15.5t-74 33.5q-41 18 -83 33.5t-97 15.5q-82 0 -133 -33.5t-76 -64.5z" />
<glyph unicode="&#xa1;" horiz-adv-x="292" d="M78 1243q0 -31 21.5 -51.5t52.5 -20.5q33 0 53 20.5t20 51.5q0 33 -20.5 52.5t-54.5 19.5q-29 0 -50.5 -19.5t-21.5 -52.5zM111 -152h84v1090h-84v-1090z" />
<glyph unicode="&#xa2;" horiz-adv-x="964" d="M53 719q0 -104 32 -199.5t91.5 -169.5t147.5 -122t198 -62v-123h86v123q98 0 171 25.5t120 68.5v100q-55 -59 -128 -85.5t-163 -26.5v944q66 0 118 -13.5t99 -35.5v-96h74v245h-74v-55q-41 16 -96 26.5t-121 10.5v123h-86v-127q-115 -12 -202 -61.5t-146 -124t-90 -170 t-31 -195.5zM141 719q0 88 28 168t78 143.5t119.5 104.5t155.5 51v-938q-92 18 -163.5 62t-120 106.5t-73 140.5t-24.5 162z" />
<glyph unicode="&#xa3;" horiz-adv-x="899" d="M37 55l55 -57q41 45 79 67.5t110 22.5q51 0 90 -14.5t73.5 -37t74.5 -35.5t93 -13q98 0 164 34.5t105 75.5l-60 58q-33 -35 -88 -61.5t-121 -26.5q-47 0 -81.5 15t-61.5 32q-33 18 -62.5 32.5t-64.5 18.5q70 66 108.5 157t38.5 191h230v74h-234q-16 82 -71 156l-109 153 q-41 61 -69.5 127.5t-28.5 144.5q0 117 68.5 169.5t175.5 52.5q123 0 197.5 -56.5t92.5 -156.5h84q-12 80 -47 136t-86 91t-113.5 51.5t-129.5 16.5q-74 0 -135.5 -23t-105.5 -63.5t-68.5 -96t-24.5 -121.5q0 -96 37.5 -173.5t83.5 -143.5q53 -78 100 -140.5t61 -123.5h-213 v-74h224q0 -78 -45.5 -171t-129.5 -177q-51 -4 -101 -29.5t-95 -81.5z" />
<glyph unicode="&#xa4;" horiz-adv-x="993" d="M53 0h334v74h-125v909h197v72h-197v219q0 78 51.5 121t130.5 43q35 0 69 -11.5t60.5 -31t43 -43t16.5 -47.5v-250h-115v-72h115v-909h-125v-74h334v74h-125v909h201v72h-201v252q0 78 33.5 105.5t87.5 27.5q41 0 62.5 -5t41.5 -14v84q-23 10 -43 14.5t-61 4.5 q-141 0 -185 -105q-10 16 -25.5 33.5t-40 33t-59 25t-84.5 9.5q-53 0 -101 -16.5t-85 -46.5t-58.5 -73t-21.5 -98v-231h-115v-72h115v-909h-125v-74z" />
<glyph unicode="&#xa5;" horiz-adv-x="1138" d="M66 1391h104l371 -650h-209v-71h209v-127h-209v-72h209v-397h-115v-74h313v74h-114v397h206v72h-206v127h206v71h-206l385 650h104v71h-299v-71h105l-332 -570l-330 570h104v71h-296v-71z" />
<glyph unicode="&#xa6;" horiz-adv-x="272" d="M111 0h71v616h-71v-616zM111 930h71v616h-71v-616z" />
<glyph unicode="&#xa7;" horiz-adv-x="784" d="M76 707q0 -70 24.5 -123.5t66.5 -92t95 -61t109 -29.5q53 -6 92 -28.5t65.5 -56t39 -73.5t12.5 -79q0 -76 -51.5 -130t-147.5 -54q-45 0 -80 13t-59.5 35.5t-42 51.5t-27.5 57l-76 -35q29 -84 99.5 -143t185.5 -59q129 0 210 71.5t81 192.5q0 98 -38 162.5t-102 103.5 q37 20 69 45t55.5 58.5t38 77.5t14.5 102q0 70 -25 126t-67 97t-99 67.5t-125 36.5q-92 14 -140 66.5t-48 132.5q0 31 11 61.5t32.5 55t55.5 41t77 16.5q70 0 118 -36t83 -99l61 41q-16 33 -38.5 64.5t-53.5 55t-73 38t-97 14.5q-63 0 -111.5 -21.5t-82 -57.5t-51 -82 t-17.5 -95q0 -51 13 -89t33.5 -65.5t46.5 -47t52 -34.5q-29 -12 -61.5 -33.5t-60 -55t-47 -84t-19.5 -119.5zM170 717q0 35 11.5 72.5t37 69.5t64.5 52.5t94 20.5q125 0 182 -64.5t57 -160.5q0 -92 -58 -148.5t-165 -56.5q-41 0 -81 13t-71.5 41t-51 68t-19.5 93z" />
<glyph unicode="&#xa8;" horiz-adv-x="647" d="M113 1350q0 -29 18.5 -47.5t46.5 -18.5q29 0 47.5 18.5t18.5 47.5t-18.5 47t-47.5 18t-47 -18.5t-18 -46.5zM395 1350q0 -29 18.5 -47.5t47.5 -18.5t47 18.5t18 47.5t-18.5 47t-46.5 18q-29 0 -47.5 -18.5t-18.5 -46.5z" />
<glyph unicode="&#xa9;" horiz-adv-x="1204" d="M70 797q0 -111 42 -209.5t115.5 -172t172 -115.5t208.5 -42q111 0 209 42t172 115.5t116 172t42 209.5t-42 209t-116 171.5t-172 115.5t-209 42t-209 -42t-171.5 -115.5t-115.5 -172t-42 -208.5zM113 799q0 102 38.5 193t106.5 159t159 106.5t193 38.5t193.5 -38.5 t159 -106.5t106.5 -159t39 -193t-39 -193.5t-106.5 -159t-158.5 -106.5t-194 -39q-102 0 -193 39t-159 106.5t-106.5 159t-38.5 193.5zM342 807q0 -47 16.5 -91t50 -79t84 -56.5t115.5 -21.5q78 0 124 24.5t71 47.5v49q-35 -35 -79 -57.5t-116 -22.5q-55 0 -98 17.5 t-70.5 47t-42 66.5t-14.5 76t14.5 76t42 65.5t70.5 46t98 17.5q66 0 114 -22.5t81 -47.5v49q-31 20 -76 41t-119 21q-68 0 -117 -21.5t-82.5 -55.5t-50 -79t-16.5 -90z" />
<glyph unicode="&#xaa;" horiz-adv-x="825" d="M88 586h688v51h-688v-51zM131 999q0 -43 16.5 -85t47 -74.5t77.5 -52t109 -19.5q51 0 88 10t63.5 24.5t45 32t30.5 31.5v-86h140v45h-91v383q0 104 -69.5 161.5t-173.5 57.5q-59 0 -115.5 -19t-93.5 -56l28 -41q29 29 77.5 47t103.5 18q35 0 69.5 -10t62 -32.5t45 -56.5 t17.5 -79v-70q-29 39 -83 71t-142 32q-59 0 -106.5 -18.5t-79 -51.5t-49 -75t-17.5 -87zM182 999q0 33 12.5 66t37 59.5t62.5 42t89 15.5q53 0 94 -15.5t67.5 -41t40 -58.5t13.5 -68t-13.5 -66.5t-40 -57t-67.5 -41t-94 -15.5q-100 0 -150.5 55t-50.5 125z" />
<glyph unicode="&#xab;" horiz-adv-x="899" d="M76 526l381 -383l37 37l-349 346l351 351l-37 34zM389 526l383 -383l35 37l-348 346l350 351l-35 34z" />
<glyph unicode="&#xac;" horiz-adv-x="565" d="M45 760h477v41h-477v-41zM82 176q0 -35 13.5 -68.5t40 -60.5t64.5 -43t87 -16t87 16t64.5 43t40 60.5t13.5 68.5q0 39 -15.5 69.5t-37 52t-45 34t-42.5 16.5q16 4 39 14.5t42.5 28t33.5 44t14 63.5q0 70 -52 117t-142 47t-142.5 -47.5t-52.5 -116.5q0 -35 13.5 -61.5 t32 -45t40 -29t37.5 -14.5q-18 -6 -41.5 -18.5t-43 -34t-34 -51t-14.5 -68.5zM125 174q0 55 40 101.5t122 46.5t123 -46.5t41 -101.5q0 -57 -41 -103t-123 -46t-122 46t-40 103zM131 498q0 47 39 87t117 40t117.5 -40t39.5 -87t-39.5 -87t-117.5 -40t-117 40t-39 87z M209 885h149v33h-57v624h-92v-35h55v-589h-55v-33z" />
<glyph unicode="&#xad;" horiz-adv-x="632" d="M106 719h422v84h-422v-84z" />
<glyph unicode="&#xae;" horiz-adv-x="827" d="M84 1104q0 -68 25.5 -126t69.5 -102.5t102.5 -70t126.5 -25.5t126 25.5t102 70t69.5 102.5t25.5 126t-25.5 126t-69.5 102t-102.5 69.5t-125.5 25.5q-68 0 -126.5 -25.5t-102.5 -69.5t-69.5 -102.5t-25.5 -125.5zM115 1104q0 61 22.5 114.5t62.5 93.5t93 62.5t115 22.5 q61 0 114 -22.5t93 -62.5t62.5 -93.5t22.5 -114.5t-22.5 -114.5t-62.5 -93.5t-93 -62.5t-114 -22.5t-114.5 22.5t-93.5 62.5t-62.5 93.5t-22.5 114.5zM295 926h29v172h63l119 -172h37l-121 172h16q47 0 76 24.5t29 75.5q0 43 -29 71.5t-76 28.5h-143v-372zM324 1126v144h116 q37 0 55.5 -21.5t18.5 -50.5q0 -72 -74 -72h-116z" />
<glyph unicode="&#xaf;" horiz-adv-x="919" d="M96 1317h752v74h-752v-74z" />
<glyph unicode="&#xb0;" horiz-adv-x="434" d="M49 1262q0 -70 49 -119t119 -49t119 49t49 119t-49 119t-119 49t-119 -49.5t-49 -118.5zM90 1262q0 53 37 90t90 37t90 -37t37 -90t-37 -90t-90 -37t-90 37t-37 90z" />
<glyph unicode="&#xb1;" horiz-adv-x="784" d="M147 348h502v84h-502v-84zM147 719h209v-209h84v209h209v84h-209v209h-84v-209h-209v-84z" />
<glyph unicode="&#xb2;" horiz-adv-x="565" d="M88 870h393v39h-338l7 33q18 76 71 126t113 97q55 45 101 93.5t46 115.5q0 63 -48 111.5t-144 48.5q-47 0 -81 -14.5t-57.5 -36t-36 -50t-18.5 -55.5h41q12 47 46 83t106 36t112.5 -36t40.5 -87q0 -59 -38.5 -97t-94.5 -81l-65 -52q-33 -26 -60.5 -55.5t-49 -63.5 t-30.5 -77z" />
<glyph unicode="&#xb3;" horiz-adv-x="565" d="M86 1014q10 -57 57 -101.5t146 -44.5q37 0 72.5 10.5t63.5 33t45 57.5t17 84q0 78 -36.5 121t-77.5 55q16 2 35.5 13t36 29.5t27.5 45t11 59.5q0 72 -52 119t-142 47q-51 0 -87 -14.5t-58.5 -36t-35 -46.5t-14.5 -50h39q2 18 11.5 37.5t27.5 36t47 26.5t70 10 q70 0 113.5 -33.5t43.5 -95.5q0 -35 -13 -58.5t-32.5 -38.5t-44 -22.5t-49.5 -7.5h-57v-39h57q53 0 98.5 -41t45.5 -116q0 -41 -15.5 -70t-39 -46t-53.5 -24.5t-56 -7.5q-72 0 -112 31t-50 78h-39z" />
<glyph unicode="&#xb4;" horiz-adv-x="542" d="M127 1294l59 -59l256 256l-59 59z" />
<glyph unicode="&#xb5;" horiz-adv-x="993" d="M53 0h334v74h-125v909h197v72h-197v219q0 82 51.5 123t130.5 41q82 0 133.5 -42t51.5 -122v-219h-117v-72h117v-821q0 -53 14 -90t39 -59.5t56.5 -32t66.5 -9.5q53 0 83 11.5t50 21.5v84q-23 -14 -51.5 -24.5t-71.5 -10.5q-37 0 -69.5 24.5t-32.5 104.5v801h198v72h-198 v231q0 51 -20.5 94t-55.5 74t-85 48.5t-108 17.5q-53 0 -101 -16.5t-85 -46.5t-58.5 -73t-21.5 -98v-231h-115v-72h115v-909h-125v-74z" />
<glyph unicode="&#xb6;" horiz-adv-x="1034" d="M100 1098q0 -78 28 -145.5t79 -117t125 -77t166 -27.5h137v-856h84v1587h-221q-92 0 -166 -27.5t-125 -76.5t-79 -115.5t-28 -144.5zM829 -125h84v1587h-84v-1587z" />
<glyph unicode="&#xb7;" horiz-adv-x="481" d="M125 809q0 -45 31.5 -77t76.5 -32q47 0 78 32t31 77q0 47 -30.5 78t-78.5 31q-45 0 -76.5 -31t-31.5 -78z" />
<glyph unicode="&#x2219;" horiz-adv-x="481" d="M125 809q0 -45 31.5 -77t76.5 -32q47 0 78 32t31 77q0 47 -30.5 78t-78.5 31q-45 0 -76.5 -31t-31.5 -78z" />
<glyph unicode="&#xb8;" horiz-adv-x="428" d="M106 -182v-82q23 -23 55 -37t64 -14q59 0 98 33.5t39 95.5q0 41 -27 66.5t-54 35.5l26 84h-90l-33 -92q33 -12 60.5 -32.5t27.5 -49.5q0 -33 -15 -45t-38 -12q-29 0 -61.5 13t-51.5 36z" />
<glyph unicode="&#xb9;" horiz-adv-x="565" d="M215 887h150v33h-58v624h-92v-35h55v-589h-55v-33z" />
<glyph unicode="&#xba;" horiz-adv-x="802" d="M94 1104q0 -63 19.5 -123.5t58.5 -107t94.5 -75t128.5 -28.5q74 0 129.5 28.5t94 75t58 107t19.5 123.5t-19.5 122.5t-58 106.5t-94 76t-129.5 29t-129 -29t-94 -76t-58.5 -106.5t-19.5 -122.5zM100 586h615v51h-615v-51zM143 1104q0 51 15.5 102t47.5 91t79 64.5 t110 24.5t110.5 -24.5t79 -64.5t47 -91t15.5 -102q0 -53 -15.5 -103.5t-47 -90.5t-78.5 -64.5t-111 -24.5q-63 0 -110 24.5t-79 64.5t-47.5 90.5t-15.5 103.5z" />
<glyph unicode="&#xbb;" horiz-adv-x="899" d="M100 879l351 -353l-349 -348l35 -37l385 385l-387 387zM406 879l350 -353l-348 -348l34 -37l385 385l-387 387z" />
<glyph unicode="&#xbc;" horiz-adv-x="565" d="M45 162h324v-121h-37v-39h112v39h-36v121h59v37h-59v471h-29l-334 -482v-26zM53 760h475v41h-475v-41zM98 199l271 389v-389h-271zM215 887h150v33h-58v624h-92v-35h55v-589h-55v-33z" />
<glyph unicode="&#xbd;" horiz-adv-x="565" d="M45 756h477v41h-477v-41zM84 -2h393v39h-338l6 33q18 76 71.5 126t113.5 97q55 45 101 93t46 116q0 63 -48 111.5t-144 48.5q-47 0 -81 -14.5t-57.5 -36t-36 -50t-18.5 -55.5h41q12 47 46 83t106 36t112.5 -36t40.5 -87q0 -59 -39 -97t-94 -81l-65 -52q-33 -26 -60.5 -56 t-49 -63.5t-30.5 -76.5zM217 885h150v33h-58v624h-92v-35h55v-589h-55v-33z" />
<glyph unicode="&#xbe;" horiz-adv-x="565" d="M45 162h324v-121h-37v-39h112v39h-36v121h59v37h-59v471h-29l-334 -482v-26zM53 760h475v41h-475v-41zM86 1014q10 -57 57 -101.5t146 -44.5q37 0 72.5 10.5t63.5 33t45 57.5t17 84q0 78 -36.5 121t-77.5 55q16 2 35.5 13t36 29.5t27.5 45t11 59.5q0 72 -52 119t-142 47 q-51 0 -87 -14.5t-58.5 -36t-35 -46.5t-14.5 -50h39q2 18 11.5 37.5t27.5 36t47 26.5t70 10q70 0 113.5 -33.5t43.5 -95.5q0 -35 -13 -58.5t-32.5 -38.5t-44 -22.5t-49.5 -7.5h-57v-39h57q53 0 98.5 -41t45.5 -116q0 -41 -15.5 -70t-39 -46t-53.5 -24.5t-56 -7.5 q-72 0 -112 31t-50 78h-39zM98 199l271 389v-389h-271z" />
<glyph unicode="&#xbf;" horiz-adv-x="899" d="M61 242q0 -92 29 -167t81 -128t128 -82t168 -29q88 0 152.5 25.5t110.5 64.5t75 87t47 93l-78 37q-14 -39 -37.5 -78.5t-60.5 -72.5t-89 -53.5t-120 -20.5q-152 0 -238 88t-86 236q0 96 28 163.5t79 109.5t125 61.5t164 21.5v348h-84v-276q-76 -6 -146.5 -32t-126 -76 t-88.5 -129t-33 -191zM424 1253q0 -31 21.5 -52t52.5 -21t52 21.5t21 51.5q0 31 -21.5 52.5t-51.5 21.5q-31 0 -52.5 -21.5t-21.5 -52.5z" />
<glyph unicode="&#xc0;" horiz-adv-x="1492" d="M68 0h374v86h-137l127 363h658l129 -363h-140v-86h355v86h-115l-463 1290h115v86h-426v-86h114l-462 -1290h-129v-86zM463 535l295 835l303 -835h-598zM539 1753l204 -203l48 47l-203 205z" />
<glyph unicode="&#xc1;" horiz-adv-x="1492" d="M68 0h374v86h-137l127 363h658l129 -363h-140v-86h355v86h-115l-463 1290h115v86h-426v-86h114l-462 -1290h-129v-86zM463 535l295 835l303 -835h-598zM711 1597l45 -47l205 203l-48 49z" />
<glyph unicode="&#xc2;" horiz-adv-x="1492" d="M68 0h374v86h-137l127 363h658l129 -363h-140v-86h355v86h-115l-463 1290h115v86h-426v-86h114l-462 -1290h-129v-86zM463 535l295 835l303 -835h-598zM541 1591l39 -39l172 174l174 -174l37 41l-191 191h-39z" />
<glyph unicode="&#xc3;" horiz-adv-x="1492" d="M68 0h374v86h-137l127 363h658l129 -363h-140v-86h355v86h-115l-463 1290h115v86h-426v-86h114l-462 -1290h-129v-86zM432 1649l57 -45q16 20 47 43.5t95 23.5q41 0 65.5 -13t46.5 -32q29 -18 62 -35.5t90 -17.5q76 0 121 33.5t74 62.5l-60 47q-18 -20 -47 -40.5 t-88 -20.5q-35 0 -62.5 16.5t-60.5 38.5q-27 16 -60.5 29.5t-80.5 13.5q-43 0 -76 -11t-57.5 -26.5t-40 -34t-25.5 -32.5zM463 535l295 835l303 -835h-598z" />
<glyph unicode="&#xc4;" horiz-adv-x="1482" d="M68 0h374v86h-137l127 363h658l129 -363h-140v-86h355v86h-115l-463 1290h115v86h-426v-86h114l-462 -1290h-129v-86zM463 535l295 835l303 -835h-598zM547 1632q0 -29 18.5 -47t46.5 -18q29 0 47.5 18t18.5 47t-18.5 47.5t-47.5 18.5t-47 -18.5t-18 -47.5zM829 1632 q0 -29 18.5 -47t47.5 -18t47.5 18t18.5 47t-18.5 47.5t-47.5 18.5t-47.5 -18.5t-18.5 -47.5z" />
<glyph unicode="&#xc5;" horiz-adv-x="1482" d="M68 0h374v86h-137l127 363h658l129 -363h-140v-86h355v86h-115l-463 1290h115v86h-426v-86h114l-462 -1290h-129v-86zM463 535l295 835l303 -835h-598zM592 1669q0 -70 49 -119t119 -49t119 49t49 119t-49.5 119t-118.5 49q-70 0 -119 -49t-49 -119zM633 1669q0 53 37 90 t90 37t90 -37t37 -90t-37 -90t-90 -37t-90 37t-37 90z" />
<glyph unicode="&#xc6;" horiz-adv-x="1529" d="M29 0h366v86h-143l235 586h277v-586h-156v-86h858v246h-86v-160h-518v684h387v-104h86v295h-86v-105h-387v520h518v-153h86v239h-958v-86h158l-512 -1290h-125v-86zM518 752l246 622v-622h-246z" />
<glyph unicode="&#xc7;" horiz-adv-x="1439" d="M78 729q0 -152 53 -285t147.5 -232t223.5 -160.5t278 -69.5l-45 -111q45 0 72 -18.5t27 -45.5q0 -33 -17.5 -45t-40.5 -12q-29 0 -58.5 13.5t-47.5 35.5v-82q23 -23 53.5 -37t64.5 -14q59 0 97.5 34t38.5 95q0 41 -27 70t-55 39l26 76q100 4 179 27.5t138.5 56 t100.5 69.5t68 68v125q-41 -47 -93.5 -92.5t-117 -80t-143 -55t-173.5 -20.5q-139 0 -258.5 49t-207 136t-136.5 207t-49 259t49 259t136.5 207t207 136t258.5 49q152 0 258.5 -50t186.5 -118v-129h98v363h-98v-113q-31 25 -75 51.5t-100.5 47t-124 34t-145.5 13.5 q-158 0 -295 -57.5t-238 -159t-158.5 -238.5t-57.5 -295z" />
<glyph unicode="&#xc8;" horiz-adv-x="993" d="M55 0h858v246h-86v-160h-518v684h387v-104h86v295h-86v-105h-387v520h518v-153h86v239h-858v-86h156v-1290h-156v-86zM350 1753l205 -203l47 47l-203 205z" />
<glyph unicode="&#xc9;" horiz-adv-x="993" d="M55 0h858v246h-86v-160h-518v684h387v-104h86v295h-86v-105h-387v520h518v-153h86v239h-858v-86h156v-1290h-156v-86zM469 1597l45 -47l205 203l-47 49z" />
<glyph unicode="&#xca;" horiz-adv-x="993" d="M55 0h858v246h-86v-160h-518v684h387v-104h86v295h-86v-105h-387v520h518v-153h86v239h-858v-86h156v-1290h-156v-86zM328 1591l39 -39l172 174l174 -174l37 41l-193 191h-37z" />
<glyph unicode="&#xcb;" horiz-adv-x="993" d="M55 0h858v246h-86v-160h-518v684h387v-104h86v295h-86v-105h-387v520h518v-153h86v239h-858v-86h156v-1290h-156v-86zM336 1632q0 -29 18.5 -47t46.5 -18q29 0 47.5 18t18.5 47t-18.5 47.5t-47.5 18.5t-47 -18.5t-18 -47.5zM618 1632q0 -29 18.5 -47t47.5 -18t47.5 18 t18.5 47t-18.5 47.5t-47.5 18.5t-47.5 -18.5t-18.5 -47.5z" />
<glyph unicode="&#xcc;" horiz-adv-x="618" d="M76 1753l205 -203l45 47l-203 205zM115 0h397v86h-150v1290h150v86h-397v-86h149v-1290h-149v-86z" />
<glyph unicode="&#xcd;" horiz-adv-x="618" d="M115 0h397v86h-150v1290h150v86h-397v-86h149v-1290h-149v-86zM285 1597l45 -47l205 203l-48 49z" />
<glyph unicode="&#xce;" horiz-adv-x="618" d="M96 1591l37 -39l174 174l174 -174l37 41l-192 191h-37zM115 0h397v86h-150v1290h150v86h-397v-86h149v-1290h-149v-86z" />
<glyph unicode="&#xcf;" horiz-adv-x="618" d="M102 1632q0 -29 18.5 -47t47.5 -18t47 18t18 47t-18 47.5t-47 18.5t-47.5 -18.5t-18.5 -47.5zM115 0h397v86h-150v1290h150v86h-397v-86h149v-1290h-149v-86zM385 1632q0 -29 18.5 -47t47.5 -18t47 18t18 47t-18.5 47.5t-46.5 18.5q-29 0 -47.5 -18.5t-18.5 -47.5z" />
<glyph unicode="&#xd0;" horiz-adv-x="1378" d="M55 719h158v-633h-156v-86h613q133 0 256 50t218 145.5t152.5 231.5t57.5 306q0 168 -56.5 303t-149.5 229.5t-216 145.5t-258 51h-617v-86h156v-571h-158v-86zM311 86v633h381v86h-381v571h353q121 0 228 -47t188 -133t128 -204t47 -259t-48 -260t-130 -205t-189.5 -134 t-223.5 -48h-353z" />
<glyph unicode="&#xd1;" horiz-adv-x="1546" d="M51 0h348v86h-125v1163l1059 -1253h49v1380h127v86h-352v-86h127v-1163l-1051 1249h-182v-86h125v-1290h-125v-86zM414 1649l57 -45q16 20 47 43.5t94 23.5q39 0 64.5 -13t48.5 -32q27 -18 60.5 -35.5t91.5 -17.5q37 0 66.5 9t53 23.5t41.5 32.5l31 31l-57 47 q-18 -20 -47 -40.5t-88 -20.5q-35 0 -63 16.5t-62 38.5q-25 16 -59 29.5t-81 13.5q-43 0 -75.5 -11t-57 -26.5t-40 -34t-25.5 -32.5z" />
<glyph unicode="&#xd2;" horiz-adv-x="1646" d="M78 729q0 -156 59.5 -292t160.5 -237.5t237 -160.5t292 -59t292 59t238.5 160.5t162 237.5t59.5 292t-59.5 292t-162 237.5t-238.5 161t-292 59.5t-292 -59.5t-237 -161t-160.5 -237.5t-59.5 -292zM176 729q0 135 51.5 253t140.5 207t207.5 140t251.5 51q135 0 254 -51 t208 -140t140.5 -207t51.5 -253q0 -133 -51.5 -252t-140.5 -208t-208 -140t-254 -51q-133 0 -251.5 51t-207.5 140t-140.5 208t-51.5 252zM639 1753l205 -203l47 47l-203 205z" />
<glyph unicode="&#xd3;" horiz-adv-x="1646" d="M78 729q0 -156 59.5 -292t160.5 -237.5t237 -160.5t292 -59t292 59t238.5 160.5t162 237.5t59.5 292t-59.5 292t-162 237.5t-238.5 161t-292 59.5t-292 -59.5t-237 -161t-160.5 -237.5t-59.5 -292zM176 729q0 135 51.5 253t140.5 207t207.5 140t251.5 51q135 0 254 -51 t208 -140t140.5 -207t51.5 -253q0 -133 -51.5 -252t-140.5 -208t-208 -140t-254 -51q-133 0 -251.5 51t-207.5 140t-140.5 208t-51.5 252zM791 1597l45 -47l204 203l-47 49z" />
<glyph unicode="&#xd4;" horiz-adv-x="1646" d="M78 729q0 -156 59.5 -292t160.5 -237.5t237 -160.5t292 -59t292 59t238.5 160.5t162 237.5t59.5 292t-59.5 292t-162 237.5t-238.5 161t-292 59.5t-292 -59.5t-237 -161t-160.5 -237.5t-59.5 -292zM176 729q0 135 51.5 253t140.5 207t207.5 140t251.5 51q135 0 254 -51 t208 -140t140.5 -207t51.5 -253q0 -133 -51.5 -252t-140.5 -208t-208 -140t-254 -51q-133 0 -251.5 51t-207.5 140t-140.5 208t-51.5 252zM616 1591l37 -39l174 174l174 -174l37 41l-192 191h-37z" />
<glyph unicode="&#xd5;" horiz-adv-x="1646" d="M78 729q0 -156 59.5 -292t160.5 -237.5t237 -160.5t292 -59t292 59t238.5 160.5t162 237.5t59.5 292t-59.5 292t-162 237.5t-238.5 161t-292 59.5t-292 -59.5t-237 -161t-160.5 -237.5t-59.5 -292zM176 729q0 135 51.5 253t140.5 207t207.5 140t251.5 51q135 0 254 -51 t208 -140t140.5 -207t51.5 -253q0 -133 -51.5 -252t-140.5 -208t-208 -140t-254 -51q-133 0 -251.5 51t-207.5 140t-140.5 208t-51.5 252zM492 1649l55 -45q16 20 48 43.5t95 23.5q39 0 64.5 -13t48.5 -32q27 -18 60.5 -35.5t88.5 -17.5q37 0 68 9t54.5 23.5t41.5 32.5 l31 31l-57 47q-20 -20 -49 -40.5t-89 -20.5q-35 0 -62 17l-61 38q-25 16 -58.5 29.5t-80.5 13.5q-43 0 -75.5 -11t-57.5 -26.5t-40 -34t-25 -32.5z" />
<glyph unicode="&#xd6;" horiz-adv-x="1640" d="M78 729q0 -156 59.5 -292t160.5 -237.5t237 -160.5t292 -59t292 59t238.5 160.5t162 237.5t59.5 292t-59.5 292t-162 237.5t-238.5 161t-292 59.5t-292 -59.5t-237 -161t-160.5 -237.5t-59.5 -292zM176 729q0 135 51.5 253t140.5 207t207.5 140t251.5 51q135 0 254 -51 t208 -140t140.5 -207t51.5 -253q0 -133 -51.5 -252t-140.5 -208t-208 -140t-254 -51q-133 0 -251.5 51t-207.5 140t-140.5 208t-51.5 252zM618 1632q0 -29 18.5 -47t47.5 -18t47.5 18t18.5 47t-18.5 47.5t-47.5 18.5t-47.5 -18.5t-18.5 -47.5zM901 1632q0 -29 18.5 -47 t47.5 -18t47 18t18 47t-18.5 47.5t-46.5 18.5q-29 0 -47.5 -18.5t-18.5 -47.5z" />
<glyph unicode="&#xd7;" horiz-adv-x="739" d="M66 47l67 -47l240 354l239 -354l70 43l-258 385l252 375l-70 43l-233 -350l-236 350l-67 -45l252 -375z" />
<glyph unicode="&#xd8;" horiz-adv-x="1650" d="M78 729q0 -182 79 -336.5t214 -259.5l-121 -174h110l86 125q86 -51 181.5 -77.5t199.5 -26.5q156 0 292 59t238.5 160.5t162 237.5t59.5 292q0 178 -75 328t-204 254q20 31 43 63l41 58l31 46l12 17h-110l-15 -21l-30 -44l-32 -46l-15 -20q-86 55 -186.5 85t-211.5 30 q-156 0 -292 -59.5t-237 -161t-160.5 -237.5t-59.5 -292zM176 729q0 135 51.5 253t140.5 207t207.5 140t251.5 51q94 0 181.5 -25.5t160.5 -72.5l-741 -1067q-117 92 -184.5 225t-67.5 289zM504 166q2 4 41 60l105 151l144 207l158 227l144 208l86 122l61 88 q111 -90 174.5 -219t63.5 -281q0 -133 -51.5 -252t-140.5 -208t-207.5 -140t-254.5 -51q-176 0 -323 88z" />
<glyph unicode="&#xd9;" horiz-adv-x="1185" d="M43 1378h127v-1005q0 -98 37 -171t96 -121t136 -71.5t155 -23.5t153.5 23.5t136 71.5t97.5 120.5t37 171.5v1005h125v84h-348v-84h125v-1013q0 -76 -30 -129.5t-76 -87t-104.5 -49t-115.5 -15.5t-115.5 15.5t-104.5 49t-76 87t-30 129.5v1013h127v84h-352v-84zM385 1753 l205 -203l45 47l-203 205z" />
<glyph unicode="&#xda;" horiz-adv-x="1185" d="M43 1378h127v-1005q0 -98 37 -171t96 -121t136 -71.5t155 -23.5t153.5 23.5t136 71.5t97.5 120.5t37 171.5v1005h125v84h-348v-84h125v-1013q0 -76 -30 -129.5t-76 -87t-104.5 -49t-115.5 -15.5t-115.5 15.5t-104.5 49t-76 87t-30 129.5v1013h127v84h-352v-84zM555 1597 l47 -47l205 203l-49 49z" />
<glyph unicode="&#xdb;" horiz-adv-x="1185" d="M43 1378h127v-1005q0 -98 37 -171t96 -121t136 -71.5t155 -23.5t153.5 23.5t136 71.5t97.5 120.5t37 171.5v1005h125v84h-348v-84h125v-1013q0 -76 -30 -129.5t-76 -87t-104.5 -49t-115.5 -15.5t-115.5 15.5t-104.5 49t-76 87t-30 129.5v1013h127v84h-352v-84zM385 1591 l37 -39l174 174l174 -174l37 41l-193 191h-36z" />
<glyph unicode="&#xdc;" horiz-adv-x="1185" d="M43 1378h127v-1005q0 -98 37 -171t96 -121t136 -71.5t155 -23.5t153.5 23.5t136 71.5t97.5 120.5t37 171.5v1005h125v84h-348v-84h125v-1013q0 -76 -30 -129.5t-76 -87t-104.5 -49t-115.5 -15.5t-115.5 15.5t-104.5 49t-76 87t-30 129.5v1013h127v84h-352v-84zM383 1632 q0 -29 18.5 -47t47.5 -18t47 18t18 47t-18.5 47.5t-46.5 18.5q-29 0 -47.5 -18.5t-18.5 -47.5zM666 1632q0 -29 18 -47t47 -18t47.5 18t18.5 47t-18.5 47.5t-47.5 18.5t-47 -18.5t-18 -47.5z" />
<glyph unicode="&#xdd;" horiz-adv-x="1165" d="M61 1376h113l361 -635v-655h-115v-86h328v86h-115v655l360 635h117v86h-309v-86h94l-311 -555l-312 555h97v86h-308v-86zM571 1597l45 -47l205 203l-47 49z" />
<glyph unicode="&#xde;" horiz-adv-x="993" d="M39 0h369v86h-136v281h273q184 0 290.5 105.5t106.5 289.5q0 88 -26.5 160.5t-78 125t-125 82t-167.5 29.5h-273v217h136v86h-369v-86h135v-1290h-135v-86zM272 453v620h273q133 0 216 -82t83 -229q0 -158 -83 -233.5t-216 -75.5h-273z" />
<glyph unicode="&#xdf;" horiz-adv-x="1095" d="M45 762h117v-762h82v1098q0 154 72.5 217t185.5 63q53 0 101 -18.5t84 -51t57.5 -78.5t21.5 -100q0 -61 -21.5 -113t-56.5 -90t-81 -59.5t-95 -21.5v-82q92 0 173 -17.5t139.5 -56.5t92 -103.5t33.5 -156.5q0 -68 -21.5 -130t-61.5 -110.5t-97 -77t-131 -28.5h-233v-84 h231q94 0 168 33t125 91t77.5 136t26.5 170q0 100 -33.5 172t-86 119t-113 72.5t-115.5 33.5q72 47 118 116t46 187q0 70 -27.5 131.5t-76 105.5t-111.5 69.5t-133 25.5q-74 0 -135.5 -22.5t-107.5 -68.5t-71.5 -113.5t-25.5 -157.5v-254h-117v-84z" />
<glyph unicode="&#xe0;" horiz-adv-x="1159" d="M90 367q0 -74 26.5 -143.5t79 -124t130 -87t180.5 -32.5q84 0 146.5 16t107.5 40.5t74.5 53.5t50.5 53v-143h233v74h-151v641q0 86 -32 153.5t-86 114.5t-129 71.5t-161 24.5q-98 0 -192.5 -32.5t-155.5 -94.5l49 -67q47 47 127 78.5t172 31.5q59 0 117.5 -18.5 t104.5 -55t75 -93t29 -132.5v-116q-23 33 -57.5 63.5t-81 55t-104.5 39t-132 14.5q-98 0 -177 -32t-132.5 -85t-82 -123t-28.5 -145zM174 367q0 55 20.5 109t62.5 97t105.5 70t147.5 27q90 0 157.5 -26t111.5 -69t66.5 -97t22.5 -111t-22.5 -111.5t-66.5 -97.5t-111.5 -69 t-157.5 -26q-84 0 -146.5 26t-104.5 69t-63.5 97.5t-21.5 111.5zM328 1491l258 -256l57 59l-254 256z" />
<glyph unicode="&#xe1;" horiz-adv-x="1159" d="M90 367q0 -74 26.5 -143.5t79 -124t130 -87t180.5 -32.5q84 0 146.5 16t107.5 40.5t74.5 53.5t50.5 53v-143h233v74h-151v641q0 86 -32 153.5t-86 114.5t-129 71.5t-161 24.5q-98 0 -192.5 -32.5t-155.5 -94.5l49 -67q47 47 127 78.5t172 31.5q59 0 117.5 -18.5 t104.5 -55t75 -93t29 -132.5v-116q-23 33 -57.5 63.5t-81 55t-104.5 39t-132 14.5q-98 0 -177 -32t-132.5 -85t-82 -123t-28.5 -145zM174 367q0 55 20.5 109t62.5 97t105.5 70t147.5 27q90 0 157.5 -26t111.5 -69t66.5 -97t22.5 -111t-22.5 -111.5t-66.5 -97.5t-111.5 -69 t-157.5 -26q-84 0 -146.5 26t-104.5 69t-63.5 97.5t-21.5 111.5zM489 1294l58 -59l258 256l-62 59z" />
<glyph unicode="&#xe2;" horiz-adv-x="1159" d="M90 367q0 -74 26.5 -143.5t79 -124t130 -87t180.5 -32.5q84 0 146.5 16t107.5 40.5t74.5 53.5t50.5 53v-143h233v74h-151v641q0 86 -32 153.5t-86 114.5t-129 71.5t-161 24.5q-98 0 -192.5 -32.5t-155.5 -94.5l49 -67q47 47 127 78.5t172 31.5q59 0 117.5 -18.5 t104.5 -55t75 -93t29 -132.5v-116q-23 33 -57.5 63.5t-81 55t-104.5 39t-132 14.5q-98 0 -177 -32t-132.5 -85t-82 -123t-28.5 -145zM174 367q0 55 20.5 109t62.5 97t105.5 70t147.5 27q90 0 157.5 -26t111.5 -69t66.5 -97t22.5 -111t-22.5 -111.5t-66.5 -97.5t-111.5 -69 t-157.5 -26q-84 0 -146.5 26t-104.5 69t-63.5 97.5t-21.5 111.5zM307 1262l47 -45l219 215l215 -215l46 47l-238 241h-49z" />
<glyph unicode="&#xe3;" horiz-adv-x="1159" d="M90 367q0 -74 26.5 -143.5t79 -124t130 -87t180.5 -32.5q84 0 146.5 16t107.5 40.5t74.5 53.5t50.5 53v-143h233v74h-151v641q0 86 -32 153.5t-86 114.5t-129 71.5t-161 24.5q-98 0 -192.5 -32.5t-155.5 -94.5l49 -67q47 47 127 78.5t172 31.5q59 0 117.5 -18.5 t104.5 -55t75 -93t29 -132.5v-116q-23 33 -57.5 63.5t-81 55t-104.5 39t-132 14.5q-98 0 -177 -32t-132.5 -85t-82 -123t-28.5 -145zM174 367q0 55 20.5 109t62.5 97t105.5 70t147.5 27q90 0 157.5 -26t111.5 -69t66.5 -97t22.5 -111t-22.5 -111.5t-66.5 -97.5t-111.5 -69 t-157.5 -26q-84 0 -146.5 26t-104.5 69t-63.5 97.5t-21.5 111.5zM252 1298l57 -47q16 20 48 45t94 25q41 0 65.5 -13.5t48.5 -33.5q27 -18 59.5 -34.5t90.5 -16.5q76 0 121 32.5t73 63.5l-59 45q-18 -18 -47 -38.5t-88 -20.5q-35 0 -63 16l-60 37q-27 16 -60.5 30.5 t-80.5 14.5q-43 0 -76 -11.5t-56.5 -26.5t-40 -34t-26.5 -33z" />
<glyph unicode="&#xe4;" horiz-adv-x="1159" d="M90 367q0 -74 26.5 -143.5t79 -124t130 -87t180.5 -32.5q84 0 146.5 16t107.5 40.5t74.5 53.5t50.5 53v-143h233v74h-151v641q0 86 -32 153.5t-86 114.5t-129 71.5t-161 24.5q-98 0 -192.5 -32.5t-155.5 -94.5l49 -67q47 47 127 78.5t172 31.5q59 0 117.5 -18.5 t104.5 -55t75 -93t29 -132.5v-116q-23 33 -57.5 63.5t-81 55t-104.5 39t-132 14.5q-98 0 -177 -32t-132.5 -85t-82 -123t-28.5 -145zM174 367q0 55 20.5 109t62.5 97t105.5 70t147.5 27q90 0 157.5 -26t111.5 -69t66.5 -97t22.5 -111t-22.5 -111.5t-66.5 -97.5t-111.5 -69 t-157.5 -26q-84 0 -146.5 26t-104.5 69t-63.5 97.5t-21.5 111.5zM356 1350q0 -29 18.5 -47.5t47.5 -18.5t47 18.5t18 47.5t-18 47t-47 18t-47.5 -18.5t-18.5 -46.5zM639 1350q0 -29 18.5 -47.5t47.5 -18.5t47 18.5t18 47.5t-18.5 47t-46.5 18q-29 0 -47.5 -18.5t-18.5 -46.5 z" />
<glyph unicode="&#xe5;" horiz-adv-x="1159" d="M90 367q0 -74 26.5 -143.5t79 -124t130 -87t180.5 -32.5q84 0 146.5 16t107.5 40.5t74.5 53.5t50.5 53v-143h233v74h-151v641q0 86 -32 153.5t-86 114.5t-129 71.5t-161 24.5q-98 0 -192.5 -32.5t-155.5 -94.5l49 -67q47 47 127 78.5t172 31.5q59 0 117.5 -18.5 t104.5 -55t75 -93t29 -132.5v-116q-23 33 -57.5 63.5t-81 55t-104.5 39t-132 14.5q-98 0 -177 -32t-132.5 -85t-82 -123t-28.5 -145zM174 367q0 55 20.5 109t62.5 97t105.5 70t147.5 27q90 0 157.5 -26t111.5 -69t66.5 -97t22.5 -111t-22.5 -111.5t-66.5 -97.5t-111.5 -69 t-157.5 -26q-84 0 -146.5 26t-104.5 69t-63.5 97.5t-21.5 111.5zM399 1366q0 -70 49.5 -119t118.5 -49q70 0 119 49t49 119t-49 119t-119 49t-119 -49t-49 -119zM440 1366q0 53 37 90t90 37t90 -37t37 -90t-36.5 -90t-90.5 -37q-53 0 -90 37t-37 90z" />
<glyph unicode="&#xe6;" horiz-adv-x="1943" d="M90 367q0 -74 26.5 -143.5t79 -124t130 -87t180.5 -32.5q84 0 146.5 16t107.5 40.5t74.5 53.5t50.5 53v-143h82v166q63 -88 158.5 -141.5t228.5 -53.5q98 0 171.5 21.5t127 56.5t90.5 79t65 89l-71 47q-27 -39 -58.5 -75.5t-77 -66.5t-105.5 -48.5t-144 -18.5 q-90 0 -162 40t-122 105.5t-76.5 148.5t-26.5 169h884q2 14 2 29v35q0 92 -34.5 181t-100 160.5t-158 115.5t-204.5 44q-133 0 -237.5 -64.5t-170.5 -172.5q-41 111 -145.5 172t-241.5 61q-98 0 -192.5 -32.5t-155.5 -94.5l49 -67q47 47 127 78.5t172 31.5q59 0 117.5 -18.5 t104.5 -55t75 -93t29 -132.5v-116q-51 74 -140.5 123t-238.5 49q-102 0 -179 -33t-130.5 -87t-80 -124t-26.5 -141zM174 367q0 55 20.5 109t62.5 97t105.5 70t147.5 27q90 0 157.5 -26t111.5 -69t66.5 -97t22.5 -111t-22.5 -111.5t-66.5 -97.5t-111.5 -69t-157.5 -26 q-84 0 -146.5 26t-104.5 69t-63.5 97.5t-21.5 111.5zM971 602q2 68 30.5 138.5t77.5 128t119 94t156 36.5q88 0 159.5 -36.5t123 -95t81 -128t33.5 -137.5h-780z" />
<glyph unicode="&#xe7;" horiz-adv-x="985" d="M59 524q0 -106 31 -202.5t93.5 -172t154.5 -124t215 -56.5l-39 -108q39 0 66.5 -21.5t27.5 -48.5q0 -25 -15 -42t-42 -17q-35 0 -61.5 16t-47.5 39v-82q23 -23 52.5 -39t62.5 -16q59 0 100 35.5t41 97.5q0 41 -27.5 66.5t-54.5 35.5l27 84q74 4 141.5 29t114.5 68v108 q-25 -23 -51.5 -44t-62 -38.5t-82 -28t-107.5 -10.5q-113 0 -198 39t-142 103.5t-86 150.5t-29 178q0 94 29 179t86 151t142 104.5t198 38.5q63 0 119.5 -10t109.5 -39v-96h74v246h-74v-54q-59 23 -118.5 30t-110.5 7q-129 0 -229.5 -46t-169 -122.5t-103.5 -177t-35 -211.5 z" />
<glyph unicode="&#xe8;" horiz-adv-x="1153" d="M80 528q0 -106 30.5 -206.5t92 -178t154 -125t216.5 -47.5q98 0 171 21.5t126.5 56.5t90 79t65.5 89l-72 47q-25 -39 -55.5 -76.5t-74.5 -66.5t-105.5 -47.5t-145.5 -18.5q-92 0 -165.5 36t-126 97.5t-80 146.5t-27.5 183h893q2 14 2 29v35q0 92 -34 181t-98.5 160.5 t-155.5 115.5t-208 44q-109 0 -199.5 -43t-156 -117.5t-101.5 -176t-36 -218.5zM182 592q2 80 30 152.5t78 130t121.5 91t161.5 33.5t163 -32.5t125 -88t82 -130t34 -156.5h-795zM344 1491l258 -256l57 59l-253 256z" />
<glyph unicode="&#xe9;" horiz-adv-x="1153" d="M80 528q0 -106 30.5 -206.5t92 -178t154 -125t216.5 -47.5q98 0 171 21.5t126.5 56.5t90 79t65.5 89l-72 47q-25 -39 -55.5 -76.5t-74.5 -66.5t-105.5 -47.5t-145.5 -18.5q-92 0 -165.5 36t-126 97.5t-80 146.5t-27.5 183h893q2 14 2 29v35q0 92 -34 181t-98.5 160.5 t-155.5 115.5t-208 44q-109 0 -199.5 -43t-156 -117.5t-101.5 -176t-36 -218.5zM182 592q2 80 30 152.5t78 130t121.5 91t161.5 33.5t163 -32.5t125 -88t82 -130t34 -156.5h-795zM465 1294l57 -59l258 256l-61 59z" />
<glyph unicode="&#xea;" horiz-adv-x="1153" d="M80 528q0 -106 30.5 -206.5t92 -178t154 -125t216.5 -47.5q98 0 171 21.5t126.5 56.5t90 79t65.5 89l-72 47q-25 -39 -55.5 -76.5t-74.5 -66.5t-105.5 -47.5t-145.5 -18.5q-92 0 -165.5 36t-126 97.5t-80 146.5t-27.5 183h893q2 14 2 29v35q0 92 -34 181t-98.5 160.5 t-155.5 115.5t-208 44q-109 0 -199.5 -43t-156 -117.5t-101.5 -176t-36 -218.5zM182 592q2 80 30 152.5t78 130t121.5 91t161.5 33.5t163 -32.5t125 -88t82 -130t34 -156.5h-795zM311 1262l49 -45l218 215l215 -215l45 47l-238 241h-49z" />
<glyph unicode="&#xeb;" horiz-adv-x="1153" d="M80 528q0 -106 30.5 -206.5t92 -178t154 -125t216.5 -47.5q98 0 171 21.5t126.5 56.5t90 79t65.5 89l-72 47q-25 -39 -55.5 -76.5t-74.5 -66.5t-105.5 -47.5t-145.5 -18.5q-92 0 -165.5 36t-126 97.5t-80 146.5t-27.5 183h893q2 14 2 29v35q0 92 -34 181t-98.5 160.5 t-155.5 115.5t-208 44q-109 0 -199.5 -43t-156 -117.5t-101.5 -176t-36 -218.5zM182 592q2 80 30 152.5t78 130t121.5 91t161.5 33.5t163 -32.5t125 -88t82 -130t34 -156.5h-795zM360 1350q0 -29 18.5 -47.5t47.5 -18.5t47.5 18.5t18.5 47.5t-18.5 47t-47.5 18t-47.5 -18.5 t-18.5 -46.5zM643 1350q0 -29 18.5 -47.5t47.5 -18.5t47 18.5t18 47.5t-18.5 47t-46.5 18q-29 0 -47.5 -18.5t-18.5 -46.5z" />
<glyph unicode="&#xec;" horiz-adv-x="522" d="M-39 1491l256 -256l59 59l-256 256zM117 0h334v84h-125v971h-209v-84h125v-887h-125v-84z" />
<glyph unicode="&#xed;" horiz-adv-x="522" d="M117 0h334v84h-125v971h-209v-84h125v-887h-125v-84zM158 1294l57 -59l258 256l-61 59z" />
<glyph unicode="&#xee;" horiz-adv-x="522" d="M-12 1262l47 -45l217 215l217 -215l45 47l-238 241h-49zM106 0h334v84h-125v971h-209v-84h125v-887h-125v-84z" />
<glyph unicode="&#xef;" horiz-adv-x="522" d="M55 1350q0 -29 18.5 -47.5t47.5 -18.5t47 18.5t18 47.5t-18 47t-47 18t-47.5 -18.5t-18.5 -46.5zM106 0h334v84h-125v971h-209v-84h125v-887h-125v-84zM338 1350q0 -29 18.5 -47.5t46.5 -18.5q29 0 47.5 18.5t18.5 47.5t-18.5 47t-47.5 18t-47 -18.5t-18 -46.5z" />
<glyph unicode="&#xf0;" horiz-adv-x="1019" d="M72 422q0 -90 33.5 -170t93 -139.5t139.5 -93t170 -33.5t170 33.5t139.5 93t93 139.5t33.5 170q0 156 -19.5 271.5t-56.5 204.5t-91 156.5t-124 127.5l187 116l-82 54l-180 -113q-102 70 -216 104l-73 -71q102 -35 196 -90l-178 -113l82 -53l176 110q37 -29 76 -66.5 t75 -87.5t64.5 -112.5t44.5 -138.5q-59 66 -141 101.5t-176 35.5q-90 0 -170 -33.5t-139.5 -93t-93 -139.5t-33.5 -170zM154 422q0 74 27.5 138.5t75.5 112.5t112.5 75.5t138.5 27.5t138.5 -27.5t112.5 -75.5t75.5 -112.5t27.5 -138.5t-27.5 -138.5t-75.5 -112.5 t-112.5 -75.5t-138.5 -27.5t-138.5 27.5t-112.5 75.5t-75.5 112.5t-27.5 138.5z" />
<glyph unicode="&#xf1;" d="M94 0h334v74h-125v702q0 23 18.5 60.5t54.5 74.5t89 63.5t125 26.5q59 0 111.5 -15t91 -51t61.5 -91.5t23 -134.5v-635h-127v-74h337v74h-129v667q0 86 -29.5 150.5t-79.5 107.5t-117.5 64.5t-141.5 21.5q-61 0 -107.5 -13t-81 -33.5t-59.5 -45t-39 -45.5v107h-209v-72 h125v-909h-125v-74zM246 1298l57 -47q16 20 48 45t93 25q41 0 66 -13.5t47 -33.5q29 -18 61.5 -34.5t90.5 -16.5q76 0 120.5 32.5t73.5 63.5l-59 45q-18 -18 -47 -38.5t-88 -20.5q-35 0 -63 16t-60 37q-27 16 -60.5 30.5t-81.5 14.5q-43 0 -75.5 -11.5t-56 -26.5t-40 -34 t-26.5 -33z" />
<glyph unicode="&#xf2;" horiz-adv-x="1146" d="M74 530q0 -104 32.5 -204.5t96 -177t158 -124t214.5 -47.5q121 0 214.5 47.5t158 124t97 177t32.5 204.5t-32.5 205t-97 178.5t-158 124.5t-214.5 47t-215 -47t-157.5 -124.5t-96 -178t-32.5 -205.5zM158 530q0 88 25.5 172t77.5 151t131 107.5t183 40.5t182.5 -40.5 t130.5 -107.5t78.5 -151t26.5 -172t-26.5 -172t-78.5 -150.5t-130 -106.5t-183 -40q-104 0 -183 40t-131 106.5t-77.5 150.5t-25.5 172zM360 1491l256 -256l60 59l-256 256z" />
<glyph unicode="&#xf3;" horiz-adv-x="1146" d="M74 530q0 -104 32.5 -204.5t96 -177t158 -124t214.5 -47.5q121 0 214.5 47.5t158 124t97 177t32.5 204.5t-32.5 205t-97 178.5t-158 124.5t-214.5 47t-215 -47t-157.5 -124.5t-96 -178t-32.5 -205.5zM158 530q0 88 25.5 172t77.5 151t131 107.5t183 40.5t182.5 -40.5 t130.5 -107.5t78.5 -151t26.5 -172t-26.5 -172t-78.5 -150.5t-130 -106.5t-183 -40q-104 0 -183 40t-131 106.5t-77.5 150.5t-25.5 172zM469 1294l57 -59l258 256l-61 59z" />
<glyph unicode="&#xf4;" horiz-adv-x="1146" d="M74 530q0 -104 32.5 -204.5t96 -177t158 -124t214.5 -47.5q121 0 214.5 47.5t158 124t97 177t32.5 204.5t-32.5 205t-97 178.5t-158 124.5t-214.5 47t-215 -47t-157.5 -124.5t-96 -178t-32.5 -205.5zM158 530q0 88 25.5 172t77.5 151t131 107.5t183 40.5t182.5 -40.5 t130.5 -107.5t78.5 -151t26.5 -172t-26.5 -172t-78.5 -150.5t-130 -106.5t-183 -40q-104 0 -183 40t-131 106.5t-77.5 150.5t-25.5 172zM309 1262l47 -45l219 215l216 -215l45 47l-238 241h-49z" />
<glyph unicode="&#xf5;" horiz-adv-x="1146" d="M74 530q0 -104 32.5 -204.5t96 -177t158 -124t214.5 -47.5q121 0 214.5 47.5t158 124t97 177t32.5 204.5t-32.5 205t-97 178.5t-158 124.5t-214.5 47t-215 -47t-157.5 -124.5t-96 -178t-32.5 -205.5zM158 530q0 88 25.5 172t77.5 151t131 107.5t183 40.5t182.5 -40.5 t130.5 -107.5t78.5 -151t26.5 -172t-26.5 -172t-78.5 -150.5t-130 -106.5t-183 -40q-104 0 -183 40t-131 106.5t-77.5 150.5t-25.5 172zM246 1298l57 -47q16 20 48 45t93 25q41 0 66 -13.5t47 -33.5q29 -18 61.5 -34.5t90.5 -16.5q76 0 120.5 32.5t73.5 63.5l-59 45 q-18 -18 -47 -38.5t-88 -20.5q-35 0 -63 16t-60 37q-27 16 -60.5 30.5t-81.5 14.5q-43 0 -75.5 -11.5t-56 -26.5t-40 -34t-26.5 -33z" />
<glyph unicode="&#xf6;" horiz-adv-x="1146" d="M74 530q0 -104 32.5 -204.5t96 -177t158 -124t214.5 -47.5q121 0 214.5 47.5t158 124t97 177t32.5 204.5t-32.5 205t-97 178.5t-158 124.5t-214.5 47t-215 -47t-157.5 -124.5t-96 -178t-32.5 -205.5zM158 530q0 88 25.5 172t77.5 151t131 107.5t183 40.5t182.5 -40.5 t130.5 -107.5t78.5 -151t26.5 -172t-26.5 -172t-78.5 -150.5t-130 -106.5t-183 -40q-104 0 -183 40t-131 106.5t-77.5 150.5t-25.5 172zM369 1350q0 -29 18.5 -47.5t46.5 -18.5q29 0 47.5 18.5t18.5 47.5t-18.5 47t-47.5 18t-47 -18.5t-18 -46.5zM651 1350q0 -29 18.5 -47.5 t47.5 -18.5t47 18.5t18 47.5t-18.5 47t-46.5 18q-29 0 -47.5 -18.5t-18.5 -46.5z" />
<glyph unicode="&#xf7;" horiz-adv-x="741" d="M119 719h526v84h-526v-84zM303 514q0 -31 21.5 -52.5t52.5 -21.5t52.5 21.5t21.5 52.5t-21.5 52.5t-52.5 21.5t-52.5 -21.5t-21.5 -52.5zM303 993q0 -31 21.5 -52t52.5 -21t52.5 21t21.5 52t-21.5 52.5t-52.5 21.5t-52.5 -21.5t-21.5 -52.5z" />
<glyph unicode="&#xf8;" horiz-adv-x="1146" d="M74 530q0 -74 15 -142.5t45 -127.5t70 -109.5t89 -82.5l-68 -113h90l41 72q57 -27 109.5 -38.5t109.5 -11.5q121 0 214.5 47.5t157 124t96 177t32.5 204.5q0 129 -46 243t-130 190l96 163h-90l-67 -114q-63 35 -127 54t-136 19q-121 0 -215 -47t-157.5 -124.5t-96 -178.5 t-32.5 -205zM158 530q0 88 25.5 172t77.5 151t131 107.5t183 40.5q133 0 222 -63l-463 -801q-43 31 -77 74t-55.5 94t-32.5 108.5t-11 116.5zM399 98l457 793q70 -72 103.5 -167t33.5 -194q0 -88 -26.5 -172t-78.5 -150.5t-130.5 -106.5t-182.5 -40q-100 0 -176 37z" />
<glyph unicode="&#xf9;" horiz-adv-x="1181" d="M86 983h125v-655q0 -172 95 -262.5t276 -90.5q57 0 102 12.5t79 31t59.5 43t43.5 49.5v-111h209v74h-125v981h-209v-72h125v-711q0 -14 -17.5 -49t-53 -71.5t-89 -64.5t-124.5 -28q-131 0 -209 63.5t-78 223.5v709h-209v-72zM319 1491l259 -256l57 59l-254 256z" />
<glyph unicode="&#xfa;" horiz-adv-x="1181" d="M86 983h125v-655q0 -172 95 -262.5t276 -90.5q57 0 102 12.5t79 31t59.5 43t43.5 49.5v-111h209v74h-125v981h-209v-72h125v-711q0 -14 -17.5 -49t-53 -71.5t-89 -64.5t-124.5 -28q-131 0 -209 63.5t-78 223.5v709h-209v-72zM483 1294l58 -59l258 256l-62 59z" />
<glyph unicode="&#xfb;" horiz-adv-x="1181" d="M86 983h125v-655q0 -172 95 -262.5t276 -90.5q57 0 102 12.5t79 31t59.5 43t43.5 49.5v-111h209v74h-125v981h-209v-72h125v-711q0 -14 -17.5 -49t-53 -71.5t-89 -64.5t-124.5 -28q-131 0 -209 63.5t-78 223.5v709h-209v-72zM295 1262l47 -45l217 215l217 -215l45 47 l-237 241h-49z" />
<glyph unicode="&#xfc;" horiz-adv-x="1181" d="M86 983h125v-655q0 -172 95 -262.5t276 -90.5q57 0 102 12.5t79 31t59.5 43t43.5 49.5v-111h209v74h-125v981h-209v-72h125v-711q0 -14 -17.5 -49t-53 -71.5t-89 -64.5t-124.5 -28q-131 0 -209 63.5t-78 223.5v709h-209v-72zM360 1350q0 -29 18.5 -47.5t47.5 -18.5 t47.5 18.5t18.5 47.5t-18.5 47t-47.5 18t-47.5 -18.5t-18.5 -46.5zM643 1350q0 -29 18.5 -47.5t47.5 -18.5t47 18.5t18 47.5t-18.5 47t-46.5 18q-29 0 -47.5 -18.5t-18.5 -46.5z" />
<glyph unicode="&#xfd;" horiz-adv-x="1157" d="M70 983h129l350 -864l-180 -461h-136v-74h353v74h-131l526 1325h109v72h-316v-72h119l-295 -752l-305 752h131v72h-354v-72zM557 1294l59 -59l256 256l-59 59z" />
<glyph unicode="&#xfe;" horiz-adv-x="1189" d="M57 -295v-74h334v74h-125v500q20 -39 53 -80t80 -74t110.5 -53.5t145.5 -20.5q121 0 209 47.5t146.5 125t87 177t28.5 205.5q0 104 -28.5 204t-87 177.5t-146.5 124.5t-209 47q-80 0 -143 -20.5t-111.5 -54t-81.5 -75.5t-53 -85v612h125v74h-334v-74h125v-1757h-125z M266 532q0 88 22.5 173.5t70 151t119 105t169.5 39.5q96 0 170 -39.5t124 -105t75.5 -151t25.5 -173.5t-23.5 -173t-71.5 -150.5t-120.5 -106.5t-171.5 -41q-96 0 -168.5 41t-122 106.5t-74 150.5t-24.5 173z" />
<glyph unicode="&#xff;" horiz-adv-x="1157" d="M70 983h129l350 -864l-180 -461h-136v-74h353v74h-131l526 1325h109v72h-316v-72h119l-295 -752l-305 752h131v72h-354v-72zM389 1350q0 -29 18.5 -47.5t47.5 -18.5t47 18.5t18 47.5t-18.5 47t-46.5 18q-29 0 -47.5 -18.5t-18.5 -46.5zM672 1350q0 -29 18.5 -47.5 t46.5 -18.5q29 0 47.5 18.5t18.5 47.5t-18.5 47t-47.5 18t-47 -18.5t-18 -46.5z" />
<glyph unicode="&#x152;" horiz-adv-x="2281" d="M78 729q0 -156 59.5 -292t160.5 -237.5t237.5 -160.5t291.5 -59q106 0 203.5 27.5t182.5 78.5t154 123t118 158v-281h-156v-86h858v246h-84v-160h-520v684h393v-104h80v295h-80v-105h-393v520h520v-153h84v239h-858v-86h156v-284q-49 86 -118 157.5t-154 122.5t-182 79 t-204 28q-156 0 -292 -59.5t-237 -161t-160.5 -237.5t-59.5 -292zM176 729q0 135 51.5 253t140.5 207t207.5 140t251.5 51q135 0 254 -51t208 -140t140.5 -207t51.5 -253q0 -133 -51.5 -252t-140.5 -208t-208 -140t-254 -51q-133 0 -251.5 51t-207.5 140t-140.5 208 t-51.5 252z" />
<glyph unicode="&#x153;" horiz-adv-x="2027" d="M74 530q0 -104 32.5 -204.5t96 -177t157.5 -124t215 -47.5q84 0 155 24t127 64.5t98 95t67 115.5q25 -61 64.5 -116.5t95 -97.5t127 -66.5t157.5 -24.5q98 0 172 21.5t127.5 56.5t90 79t65.5 89l-72 47q-27 -39 -58.5 -75.5t-76.5 -66.5t-105.5 -48.5t-144.5 -18.5 q-90 0 -161.5 40t-120.5 105.5t-76 148.5t-27 169h883q2 14 2 29v35q0 92 -35 181t-100.5 160.5t-157.5 115.5t-205 44q-154 0 -267.5 -84t-174.5 -217q-27 61 -68 116.5t-98 97.5t-128 65.5t-155 23.5q-121 0 -215 -47t-157.5 -124.5t-96 -178t-32.5 -205.5zM158 530 q0 88 25.5 172t77.5 151t131 107.5t183 40.5t182.5 -40.5t130.5 -107.5t78.5 -151t26.5 -172t-26.5 -172t-78.5 -150.5t-130 -106.5t-183 -40q-104 0 -183 40t-131 106.5t-77.5 150.5t-25.5 172zM1085 602q2 68 30 138.5t77 128t118.5 94t155.5 36.5q88 0 160 -36.5t123 -95 t81 -128t34 -137.5h-779z" />
<glyph unicode="&#x178;" horiz-adv-x="1165" d="M61 1376h113l361 -635v-655h-115v-86h328v86h-115v655l360 635h117v86h-309v-86h94l-311 -555l-312 555h97v86h-308v-86zM375 1632q0 -29 18.5 -47t46.5 -18q29 0 47.5 18t18.5 47t-18.5 47.5t-47.5 18.5t-47 -18.5t-18 -47.5zM657 1632q0 -29 18.5 -47t47.5 -18t47 18 t18 47t-18 47.5t-47 18.5t-47.5 -18.5t-18.5 -47.5z" />
<glyph unicode="&#x2c6;" horiz-adv-x="720" d="M100 1262l47 -45l220 215l215 -215l45 47l-238 241h-49z" />
<glyph unicode="&#x2dc;" horiz-adv-x="886" d="M117 1298l57 -47q16 20 46 45t85 25q47 0 70.5 -13.5t52.5 -33.5q27 -18 60.5 -34.5t91.5 -16.5q76 0 120.5 32.5t73.5 63.5l-59 45q-18 -18 -47 -38.5t-88 -20.5q-35 0 -64 15t-61 38q-25 16 -59 30.5t-81 14.5q-43 0 -75.5 -11.5t-57 -26.5t-40 -34t-25.5 -33z" />
<glyph unicode="&#x2000;" horiz-adv-x="918" />
<glyph unicode="&#x2001;" horiz-adv-x="1837" />
<glyph unicode="&#x2002;" horiz-adv-x="918" />
<glyph unicode="&#x2003;" horiz-adv-x="1837" />
<glyph unicode="&#x2004;" horiz-adv-x="612" />
<glyph unicode="&#x2005;" horiz-adv-x="459" />
<glyph unicode="&#x2006;" horiz-adv-x="306" />
<glyph unicode="&#x2007;" horiz-adv-x="306" />
<glyph unicode="&#x2008;" horiz-adv-x="229" />
<glyph unicode="&#x2009;" horiz-adv-x="367" />
<glyph unicode="&#x200a;" horiz-adv-x="102" />
<glyph unicode="&#x2010;" horiz-adv-x="632" d="M106 719h422v84h-422v-84z" />
<glyph unicode="&#x2011;" horiz-adv-x="632" d="M106 719h422v84h-422v-84z" />
<glyph unicode="&#x2012;" horiz-adv-x="632" d="M106 719h422v84h-422v-84z" />
<glyph unicode="&#x2013;" horiz-adv-x="845" d="M86 510h678v84h-678v-84z" />
<glyph unicode="&#x2014;" horiz-adv-x="1724" d="M127 510h1475v84h-1475v-84z" />
<glyph unicode="&#x2018;" horiz-adv-x="333" d="M100 1110h125v145h-67v101q0 49 12 80.5t25 54.5h-60q-12 -23 -23.5 -53.5t-11.5 -81.5v-246z" />
<glyph unicode="&#x2019;" horiz-adv-x="372" d="M141 1364h68v-100q0 -49 -12.5 -81t-24.5 -55h59q12 23 23.5 53.5t11.5 82.5v245h-125v-145z" />
<glyph unicode="&#x201a;" horiz-adv-x="376" d="M141 184h68v-100q0 -49 -12.5 -81t-24.5 -54h59q12 23 23.5 53.5t11.5 81.5v246h-125v-146z" />
<glyph unicode="&#x201c;" horiz-adv-x="585" d="M100 1110h125v145h-67v101q0 49 12 80.5t25 54.5h-60q-12 -23 -23.5 -53.5t-11.5 -81.5v-246zM365 1110h124v145h-67v101q0 49 12 80.5t25 54.5h-60q-12 -23 -23 -53.5t-11 -81.5v-246z" />
<glyph unicode="&#x201d;" horiz-adv-x="616" d="M121 1364h67v-100q0 -49 -12 -81t-24 -55h59q12 23 23.5 53.5t11.5 82.5v245h-125v-145zM385 1364h68v-100q0 -49 -12.5 -81t-24.5 -55h59q12 23 23.5 53.5t11.5 82.5v245h-125v-145z" />
<glyph unicode="&#x201e;" horiz-adv-x="616" d="M133 184h68v-100q0 -49 -12.5 -81t-24.5 -54h59q12 23 23.5 53.5t11.5 81.5v246h-125v-146zM397 184h68v-100q0 -49 -12.5 -81t-24.5 -54h59q12 23 23.5 53.5t11.5 81.5v246h-125v-146z" />
<glyph unicode="&#x2022;" horiz-adv-x="679" d="M86 608q0 -53 20.5 -99t54.5 -80t80 -54.5t99 -20.5t99 20.5t81 54.5t55.5 80t20.5 99q0 51 -20.5 98.5t-55.5 81t-81 54t-99 20.5t-99 -20.5t-80 -54t-54.5 -81t-20.5 -98.5z" />
<glyph unicode="&#x2026;" horiz-adv-x="948" d="M96 66q0 -31 21.5 -52.5t52.5 -21.5t52.5 21.5t21.5 52.5t-21.5 52t-52.5 21t-52.5 -21.5t-21.5 -51.5zM418 66q0 -31 21.5 -52.5t52.5 -21.5t52 21.5t21 52.5t-21.5 52t-51.5 21q-31 0 -52.5 -21.5t-21.5 -51.5zM739 66q0 -31 21.5 -52.5t52.5 -21.5t52.5 21.5 t21.5 52.5t-21.5 52t-52.5 21t-52.5 -21.5t-21.5 -51.5z" />
<glyph unicode="&#x202f;" horiz-adv-x="367" />
<glyph unicode="&#x2039;" horiz-adv-x="593" d="M63 526l381 -383l37 37l-348 346l350 351l-37 34z" />
<glyph unicode="&#x203a;" horiz-adv-x="593" d="M100 879l351 -353l-349 -348l35 -37l385 385l-387 387z" />
<glyph unicode="&#x205f;" horiz-adv-x="459" />
<glyph unicode="&#x2122;" horiz-adv-x="690" d="M80 1434h104v-316h15v316h104v12h-223v-12zM293 1120h14l62 283l102 -299l102 299l58 -283h14l-67 330l-107 -303l-104 303z" />
<glyph unicode="&#xe000;" horiz-adv-x="1055" d="M0 1055h1055v-1055h-1055v1055z" />
<glyph unicode="&#xfb01;" horiz-adv-x="1064" d="M638 0h334v74h-125v981h-209v-72h125v-909h-125v-74zM741 1350q0 -29 18.5 -47.5t46.5 -18.5q29 0 47.5 18.5t18.5 47.5t-18.5 47t-47.5 18t-47 -18.5t-18 -46.5zM53 0h334v74h-125v909h201v72h-201v252q0 66 27.5 95.5t75.5 29.5q43 0 71.5 -10.5t50.5 -20.5v82 q-23 10 -52 21.5t-81 11.5q-84 0 -130 -51.5t-46 -137.5v-272h-115v-72h115v-909h-125v-74z" />
<glyph unicode="&#xfb02;" horiz-adv-x="1006" d="M610 0h333v74h-125v1462h-208v-74h125v-1388h-125v-74zM53 0h334v74h-125v909h201v72h-201v252q0 66 27.5 95.5t75.5 29.5q43 0 71.5 -10.5t50.5 -20.5v82q-23 10 -52 21.5t-81 11.5q-84 0 -130 -51.5t-46 -137.5v-272h-115v-72h115v-909h-125v-74z" />
<glyph unicode="&#xfb03;" horiz-adv-x="1606" d="M1180 0h334v74h-125v981h-209v-72h125v-909h-125v-74zM1283 1350q0 -29 18.5 -47.5t46.5 -18.5q29 0 47.5 18.5t18.5 47.5t-18.5 47t-47.5 18t-47 -18.5t-18 -46.5zM595 0h334v74h-125v909h201v72h-201v252q0 66 27.5 95.5t75.5 29.5q43 0 71.5 -10.5t50.5 -20.5v82 q-23 10 -52 21.5t-81 11.5q-84 0 -130 -51.5t-46 -137.5v-272h-115v-72h115v-909h-125v-74zM53 0h334v74h-125v909h201v72h-201v252q0 66 27.5 95.5t75.5 29.5q43 0 71.5 -10.5t50.5 -20.5v82q-23 10 -52 21.5t-81 11.5q-84 0 -130 -51.5t-46 -137.5v-272h-115v-72h115v-909 h-125v-74z" />
<glyph unicode="&#xfb04;" horiz-adv-x="1548" d="M1152 0h333v74h-125v1462h-208v-74h125v-1388h-125v-74zM595 0h334v74h-125v909h201v72h-201v252q0 66 27.5 95.5t75.5 29.5q43 0 71.5 -10.5t50.5 -20.5v82q-23 10 -52 21.5t-81 11.5q-84 0 -130 -51.5t-46 -137.5v-272h-115v-72h115v-909h-125v-74zM53 0h334v74h-125 v909h201v72h-201v252q0 66 27.5 95.5t75.5 29.5q43 0 71.5 -10.5t50.5 -20.5v82q-23 10 -52 21.5t-81 11.5q-84 0 -130 -51.5t-46 -137.5v-272h-115v-72h115v-909h-125v-74z" />
</font>
</defs>
</svg>
